<?xml version="1.0" encoding="UTF-8"?>
<svg width="526px" height="290px" viewBox="0 0 526 290" version="1.1" xmlns="http://www.w3.org/2000/svg" xmlns:xlink="http://www.w3.org/1999/xlink">
    <!-- Generator: Sketch 63.1 (92452) - https://sketch.com -->
    <title>编组 14@2x</title>
    <desc>Created with Sketch.</desc>
    <defs>
        <rect id="path-1" x="6" y="6" width="224" height="270"></rect>
        <filter x="-23.9%" y="-23.4%" width="147.9%" height="146.8%" filterUnits="objectBoundingBox" id="filter-3">
            <feGaussianBlur stdDeviation="2.7" in="SourceGraphic"></feGaussianBlur>
        </filter>
        <filter x="-22.8%" y="-46.8%" width="145.6%" height="193.7%" filterUnits="objectBoundingBox" id="filter-4">
            <feGaussianBlur stdDeviation="2.7" in="SourceGraphic"></feGaussianBlur>
        </filter>
        <filter x="-44.1%" y="-41.3%" width="188.1%" height="182.6%" filterUnits="objectBoundingBox" id="filter-5">
            <feGaussianBlur stdDeviation="2.7" in="SourceGraphic"></feGaussianBlur>
        </filter>
        <filter x="-4.3%" y="-3.4%" width="108.6%" height="106.8%" filterUnits="objectBoundingBox" id="filter-6">
            <feGaussianBlur stdDeviation="2.7" in="SourceGraphic"></feGaussianBlur>
        </filter>
        <filter x="-7.5%" y="-6.5%" width="115.0%" height="113.0%" filterUnits="objectBoundingBox" id="filter-7">
            <feGaussianBlur stdDeviation="2.7" in="SourceGraphic"></feGaussianBlur>
        </filter>
        <filter x="-7.5%" y="-42.6%" width="115.1%" height="185.2%" filterUnits="objectBoundingBox" id="filter-8">
            <feGaussianBlur stdDeviation="2.7" in="SourceGraphic"></feGaussianBlur>
        </filter>
    </defs>
    <g id="2-个人中心-ISV资质认证" stroke="none" stroke-width="1" fill="none" fill-rule="evenodd">
        <g id="isv资质认证1" transform="translate(-679.000000, -1471.000000)">
            <g id="编组-14" transform="translate(679.000000, 1471.000000)">
                <rect id="Rectangle-4-Copy-7复制-3" stroke="#D9D9D9" fill="#FFFFFF" x="0.5" y="0.5" width="235" height="281"></rect>
                <g id="编组-13" transform="translate(290.000000, 0.000000)">
                    <rect id="Rectangle-4-Copy-7复制-3备份" stroke="#D9D9D9" fill="#FFFFFF" x="0.5" y="0.5" width="235" height="281"></rect>
                    <mask id="mask-2" fill="white">
                        <use xlink:href="#path-1"></use>
                    </mask>
                    <use id="Rectangle-4-Copy-7复制-3备份" fill="#FFFFFF" xlink:href="#path-1"></use>
                    <g id="证件1备份-2" mask="url(#mask-2)">
                        <g transform="translate(142.000000, 164.000000) rotate(-10.000000) translate(-142.000000, -164.000000) translate(32.000000, 30.000000)">
                            <rect id="矩形" stroke="#D9D9D9" stroke-width="1.8" fill="#FAFAFA" x="0.9" y="0.9" width="218.2" height="266.2" rx="3.6"></rect>
                            <g id="编组-2" stroke="none" stroke-width="1" fill="none" transform="translate(16.076923, 12.967742)">
                                <g id="编组" transform="translate(76.153846, 0.000000)">
                                    <ellipse id="椭圆形" stroke="#D54241" stroke-width="4.5" fill="#EF979C" filter="url(#filter-3)" cx="17.7692308" cy="17.2903226" rx="14.6730769" ry="15.0403226"></ellipse>
                                    <path d="M0,36.1014712 L3.98274611,24.2433783 C7.07334161,29.935752 11.6688365,32.7819389 17.7692308,32.7819389 C23.869625,32.7819389 28.7043653,29.935752 32.2734516,24.2433783 L35.5384615,36.1014712 L33.4897567,36.1014712 L33.4897567,38.2743631 L31.0520664,38.2743631 L31.0520664,39.9003203 L28.2217195,39.9003203 L28.2217195,41.5337008 L22.9954751,41.5337008 L21.9502262,35.0150253 C19.8578423,35.0903661 18.4641772,34.7081526 17.7692308,33.8683849 C17.2922173,34.6702328 15.8985521,35.0524463 13.5882353,35.0150253 L12.5429864,41.5337008 L6.9423771,41.5337008 L6.9423771,39.9003203 L4.43420014,39.9003203 L4.43420014,38.2743631 L2.47189449,38.2743631 L2.47189449,36.1014712 L0,36.1014712 Z" id="路径-3" fill="#EF979C" filter="url(#filter-4)"></path>
                                    <path d="M20.149951,21.6582114 C20.1880314,21.6880531 20.2140894,21.7306123 20.2233542,21.7780972 L20.2730094,22.0325951 C20.2959019,22.1499258 20.3419395,22.2615203 20.4084344,22.360863 L20.7775832,22.9123684 L21.6217168,23.6215711 C21.6978307,23.6855185 21.7076935,23.7990607 21.6437461,23.8751746 C21.6095453,23.9158823 21.5590975,23.9393875 21.5059297,23.9393875 L21.1537876,23.939129 L21.1537876,24.803129 L23.4223077,24.8039036 C23.5714246,24.8039036 23.6923077,24.9247867 23.6923077,25.0739036 L23.6923077,26.2629359 C23.6923077,26.4120528 23.5714246,26.5329359 23.4223077,26.5329359 L12.1161538,26.5329359 C11.967037,26.5329359 11.8461538,26.4120528 11.8461538,26.2629359 L11.8461538,25.0739036 C11.8461538,24.9247867 11.967037,24.8039036 12.1161538,24.8039036 L14.3837876,24.803129 L14.3837876,23.939129 L14.0386679,23.9393875 C13.9392567,23.9393875 13.8586679,23.8587988 13.8586679,23.7593875 C13.8586679,23.7057221 13.8826133,23.6548556 13.9239735,23.6206604 L14.7806786,22.9123684 L15.1412593,22.3499652 C15.2004345,22.2576688 15.2422476,22.1553369 15.2646389,22.0480105 L15.3209503,21.7780972 C15.3438507,21.6683305 15.4513987,21.5979114 15.5611654,21.6208118 C15.6086251,21.6307133 15.650975,21.6572708 15.6805565,21.6956817 L16.0769231,22.2103552 L19.4615385,22.2103552 L19.8673648,21.6924881 C19.9359336,21.6049888 20.0624517,21.5896426 20.149951,21.6582114 Z M15.3551941,14.7704184 L15.5474755,16.2459997 L16.9201779,16.7449513 L15.6060422,17.3877699 L15.5657784,18.8758029 L14.5613165,17.7975053 L13.1637297,18.2182086 L13.8570738,16.9089655 L13.0335815,15.6809414 L14.4665536,15.9500823 L15.3551941,14.7704184 Z M21.0294213,14.7704184 L21.9180618,15.9500823 L23.3510339,15.6809414 L22.5275416,16.9089655 L23.2208857,18.2182086 L21.8232989,17.7975053 L20.818837,18.8758029 L20.7785732,17.3877699 L19.4644375,16.7449513 L20.8371399,16.2459997 L21.0294213,14.7704184 Z M11.7902578,11.6295746 L11.476984,13.0833587 L12.5998754,14.0319001 L11.1498047,14.1767374 L10.6138416,15.5609611 L10.0309224,14.1966914 L8.57678763,14.1036473 L9.66659451,13.1156449 L9.30385284,11.6739168 L10.5603097,12.4275675 L11.7902578,11.6295746 Z M23.7482037,10.7650585 L24.9781518,11.5630514 L26.2346087,10.8094007 L25.871867,12.2511288 L26.9616739,13.2391312 L25.5075391,13.3321753 L24.9246199,14.696445 L24.3886569,13.3122213 L22.9385861,13.167384 L24.0614775,12.2188426 L23.7482037,10.7650585 Z M17.7692308,6.91612903 L18.6644729,9.11525872 L20.9881913,9.30559285 L19.217763,10.8550639 L19.7586578,13.1718265 L17.7692308,11.9303226 L15.7798038,13.1718265 L16.3206985,10.8550639 L14.5502703,9.30559285 L16.8739886,9.11525872 L17.7692308,6.91612903 Z" id="形状结合" fill="#D54241" filter="url(#filter-5)"></path>
                                </g>
                                <path d="M66.5331573,6.91612903 L66.5331573,17.2903226 L10.1538462,17.2903226 L10.1538462,233.419355 L177.692308,233.419355 L177.692308,17.2903226 L120.028832,17.2903226 L120.028832,6.91612903 L181.346711,6.91612903 C185.187524,6.91612903 187.748142,10.1997242 187.843402,13.7740058 L187.846154,13.9805155 L187.846154,236.729162 C187.846154,240.313517 185.358004,243.664741 181.566868,243.789927 L181.346711,243.793548 L6.49944259,243.793548 C2.65862984,243.793548 0.098011862,240.509953 0.00275209239,236.935672 L0,236.729162 L0,13.9805155 C0,10.3961605 2.48814981,7.04493606 6.279286,6.91975079 L6.49944259,6.91612903 L66.5331573,6.91612903 Z" id="路径" fill="#E6E6E6" fill-rule="nonzero" filter="url(#filter-6)"></path>
                                <path d="M146.276923,206.619355 C147.271036,206.619355 148.076923,207.425242 148.076923,208.419355 L148.076923,211.735484 C148.076923,212.729596 147.271036,213.535484 146.276923,213.535484 L117.723077,213.535484 C116.728964,213.535484 115.923077,212.729596 115.923077,211.735484 L115.923077,208.419355 C115.923077,207.425242 116.728964,206.619355 117.723077,206.619355 L146.276923,206.619355 Z M146.276923,194.516129 C147.271036,194.516129 148.076923,195.322016 148.076923,196.316129 L148.076923,199.632258 C148.076923,200.626371 147.271036,201.432258 146.276923,201.432258 L79.6461538,201.432258 C78.6520413,201.432258 77.8461538,200.626371 77.8461538,199.632258 L77.8461538,196.316129 C77.8461538,195.322016 78.6520413,194.516129 79.6461538,194.516129 L146.276923,194.516129 Z M57.4307692,169.445161 C58.4248818,169.445161 59.2307692,170.251049 59.2307692,171.245161 L59.2307692,186.664516 C59.2307692,187.658629 58.4248818,188.464516 57.4307692,188.464516 L42.4153846,188.464516 C41.4212721,188.464516 40.6153846,187.658629 40.6153846,186.664516 L40.6153846,171.245161 C40.6153846,170.251049 41.4212721,169.445161 42.4153846,169.445161 L57.4307692,169.445161 Z M147.123077,135.729032 C148.117189,135.729032 148.923077,136.53492 148.923077,137.529032 L148.923077,152.948387 C148.923077,153.9425 148.117189,154.748387 147.123077,154.748387 L64.4153846,154.748387 C63.4212721,154.748387 62.6153846,153.9425 62.6153846,152.948387 L62.6153846,137.529032 C62.6153846,136.53492 63.4212721,135.729032 64.4153846,135.729032 L147.123077,135.729032 Z M52.3538462,135.729032 C53.3479587,135.729032 54.1538462,136.53492 54.1538462,137.529032 L54.1538462,140.845161 C54.1538462,141.839274 53.3479587,142.645161 52.3538462,142.645161 L42.4153846,142.645161 C41.4212721,142.645161 40.6153846,141.839274 40.6153846,140.845161 L40.6153846,137.529032 C40.6153846,136.53492 41.4212721,135.729032 42.4153846,135.729032 L52.3538462,135.729032 Z M52.3538462,120.167742 C53.3479587,120.167742 54.1538462,120.973629 54.1538462,121.967742 L54.1538462,125.283871 C54.1538462,126.277984 53.3479587,127.083871 52.3538462,127.083871 L42.4153846,127.083871 C41.4212721,127.083871 40.6153846,126.277984 40.6153846,125.283871 L40.6153846,121.967742 C40.6153846,120.973629 41.4212721,120.167742 42.4153846,120.167742 L52.3538462,120.167742 Z M131.046154,120.167742 C132.040266,120.167742 132.846154,120.973629 132.846154,121.967742 L132.846154,125.283871 C132.846154,126.277984 132.040266,127.083871 131.046154,127.083871 L64.4153846,127.083871 C63.4212721,127.083871 62.6153846,126.277984 62.6153846,125.283871 L62.6153846,121.967742 C62.6153846,120.973629 63.4212721,120.167742 64.4153846,120.167742 L131.046154,120.167742 Z M52.3538462,104.606452 C53.3479587,104.606452 54.1538462,105.412339 54.1538462,106.406452 L54.1538462,109.722581 C54.1538462,110.716693 53.3479587,111.522581 52.3538462,111.522581 L42.4153846,111.522581 C41.4212721,111.522581 40.6153846,110.716693 40.6153846,109.722581 L40.6153846,106.406452 C40.6153846,105.412339 41.4212721,104.606452 42.4153846,104.606452 L52.3538462,104.606452 Z M105.661538,104.606452 C106.655651,104.606452 107.461538,105.412339 107.461538,106.406452 L107.461538,109.722581 C107.461538,110.716693 106.655651,111.522581 105.661538,111.522581 L64.4153846,111.522581 C63.4212721,111.522581 62.6153846,110.716693 62.6153846,109.722581 L62.6153846,106.406452 C62.6153846,105.412339 63.4212721,104.606452 64.4153846,104.606452 L105.661538,104.606452 Z M52.3538462,89.0451613 C53.3479587,89.0451613 54.1538462,89.8510487 54.1538462,90.8451613 L54.1538462,94.1612903 C54.1538462,95.1554029 53.3479587,95.9612903 52.3538462,95.9612903 L42.4153846,95.9612903 C41.4212721,95.9612903 40.6153846,95.1554029 40.6153846,94.1612903 L40.6153846,90.8451613 C40.6153846,89.8510487 41.4212721,89.0451613 42.4153846,89.0451613 L52.3538462,89.0451613 Z M145.430769,89.0451613 C146.424882,89.0451613 147.230769,89.8510487 147.230769,90.8451613 L147.230769,94.1612903 C147.230769,95.1554029 146.424882,95.9612903 145.430769,95.9612903 L64.4153846,95.9612903 C63.4212721,95.9612903 62.6153846,95.1554029 62.6153846,94.1612903 L62.6153846,90.8451613 C62.6153846,89.8510487 63.4212721,89.0451613 64.4153846,89.0451613 L145.430769,89.0451613 Z" id="形状结合" fill="#B5B5B5" fill-rule="nonzero" opacity="0.5" filter="url(#filter-7)"></path>
                                <path d="M55.7384615,56.1935484 C56.7325741,56.1935484 57.5384615,56.9994358 57.5384615,57.9935484 L57.5384615,73.4129032 C57.5384615,74.4070158 56.7325741,75.2129032 55.7384615,75.2129032 L42.4153846,75.2129032 C41.4212721,75.2129032 40.6153846,74.4070158 40.6153846,73.4129032 L40.6153846,57.9935484 C40.6153846,56.9994358 41.4212721,56.1935484 42.4153846,56.1935484 L55.7384615,56.1935484 Z M86.2,56.1935484 C87.1941125,56.1935484 88,56.9994358 88,57.9935484 L88,73.4129032 C88,74.4070158 87.1941125,75.2129032 86.2,75.2129032 L72.8769231,75.2129032 C71.8828105,75.2129032 71.0769231,74.4070158 71.0769231,73.4129032 L71.0769231,57.9935484 C71.0769231,56.9994358 71.8828105,56.1935484 72.8769231,56.1935484 L86.2,56.1935484 Z M115.815385,56.1935484 C116.809497,56.1935484 117.615385,56.9994358 117.615385,57.9935484 L117.615385,73.4129032 C117.615385,74.4070158 116.809497,75.2129032 115.815385,75.2129032 L102.492308,75.2129032 C101.498195,75.2129032 100.692308,74.4070158 100.692308,73.4129032 L100.692308,57.9935484 C100.692308,56.9994358 101.498195,56.1935484 102.492308,56.1935484 L115.815385,56.1935484 Z M146.276923,56.1935484 C147.271036,56.1935484 148.076923,56.9994358 148.076923,57.9935484 L148.076923,73.4129032 C148.076923,74.4070158 147.271036,75.2129032 146.276923,75.2129032 L132.953846,75.2129032 C131.959734,75.2129032 131.153846,74.4070158 131.153846,73.4129032 L131.153846,57.9935484 C131.153846,56.9994358 131.959734,56.1935484 132.953846,56.1935484 L146.276923,56.1935484 Z" id="形状结合复制" fill="#C9B29A" fill-rule="nonzero" filter="url(#filter-8)"></path>
                            </g>
                        </g>
                    </g>
                </g>
                <g id="证件1" transform="translate(8.000000, 8.000000)">
                    <rect id="矩形" stroke="#D9D9D9" stroke-width="1.8" fill="#FAFAFA" fill-rule="evenodd" x="0.9" y="0.9" width="218.2" height="266.2" rx="3.6"></rect>
                    <g id="编组" stroke-width="1" fill-rule="evenodd" transform="translate(92.230769, 12.967742)">
                        <ellipse id="椭圆形" stroke="#D54241" stroke-width="4.5" fill="#EF979C" cx="17.7692308" cy="17.2903226" rx="14.6730769" ry="15.0403226"></ellipse>
                        <path d="M0,36.1014712 L3.98274611,24.2433783 C7.07334161,29.935752 11.6688365,32.7819389 17.7692308,32.7819389 C23.869625,32.7819389 28.7043653,29.935752 32.2734516,24.2433783 L35.5384615,36.1014712 L33.4897567,36.1014712 L33.4897567,38.2743631 L31.0520664,38.2743631 L31.0520664,39.9003203 L28.2217195,39.9003203 L28.2217195,41.5337008 L22.9954751,41.5337008 L21.9502262,35.0150253 C19.8578423,35.0903661 18.4641772,34.7081526 17.7692308,33.8683849 C17.2922173,34.6702328 15.8985521,35.0524463 13.5882353,35.0150253 L12.5429864,41.5337008 L6.9423771,41.5337008 L6.9423771,39.9003203 L4.43420014,39.9003203 L4.43420014,38.2743631 L2.47189449,38.2743631 L2.47189449,36.1014712 L0,36.1014712 Z" id="路径-3" fill="#EF979C"></path>
                        <path d="M20.149951,21.6582114 C20.1880314,21.6880531 20.2140894,21.7306123 20.2233542,21.7780972 L20.2730094,22.0325951 C20.2959019,22.1499258 20.3419395,22.2615203 20.4084344,22.360863 L20.7775832,22.9123684 L21.6217168,23.6215711 C21.6978307,23.6855185 21.7076935,23.7990607 21.6437461,23.8751746 C21.6095453,23.9158823 21.5590975,23.9393875 21.5059297,23.9393875 L21.1531538,23.9389032 L21.1531538,24.8039032 L23.4223077,24.8039036 C23.5714246,24.8039036 23.6923077,24.9247867 23.6923077,25.0739036 L23.6923077,26.2629359 C23.6923077,26.4120528 23.5714246,26.5329359 23.4223077,26.5329359 L12.1161538,26.5329359 C11.967037,26.5329359 11.8461538,26.4120528 11.8461538,26.2629359 L11.8461538,25.0739036 C11.8461538,24.9247867 11.967037,24.8039036 12.1161538,24.8039036 L14.3841538,24.8039032 L14.3841538,23.9389032 L14.0386679,23.9393875 C13.9392567,23.9393875 13.8586679,23.8587988 13.8586679,23.7593875 C13.8586679,23.7057221 13.8826133,23.6548556 13.9239735,23.6206604 L14.7806786,22.9123684 L15.1412593,22.3499652 C15.2004345,22.2576688 15.2422476,22.1553369 15.2646389,22.0480105 L15.3209503,21.7780972 C15.3438507,21.6683305 15.4513987,21.5979114 15.5611654,21.6208118 C15.6086251,21.6307133 15.650975,21.6572708 15.6805565,21.6956817 L16.0769231,22.2103552 L19.4615385,22.2103552 L19.8673648,21.6924881 C19.9359336,21.6049888 20.0624517,21.5896426 20.149951,21.6582114 Z" id="形状结合" fill="#D54241"></path>
                        <polygon id="星形复制" fill="#D54241" transform="translate(10.685378, 13.233490) rotate(35.000000) translate(-10.685378, -13.233490) " points="10.7017488 14.3978787 9.45722339 15.1557189 9.78324606 13.7213072 8.65916418 12.7483727 10.1206697 12.6450531 10.6704743 11.2859064 11.2477117 12.6564631 12.7115915 12.7893986 11.6068384 13.7397688 11.9617612 15.1810743"></polygon>
                        <polygon id="星形复制-2" fill="#D54241" transform="translate(14.856734, 16.661336) rotate(-345.000000) translate(-14.856734, -16.661336) " points="14.8654449 17.8352509 13.6243658 18.6033412 13.9552277 17.1592588 12.8419592 16.1862142 14.2957627 16.0753038 14.8488041 14.7058389 15.4164422 16.0813749 16.871509 16.2080436 15.7685251 17.1690821 16.1147645 18.6168326"></polygon>
                        <polygon id="星形复制-3" fill="#D54241" transform="translate(21.527881, 16.661336) rotate(-15.000000) translate(-21.527881, -16.661336) " points="21.5191705 17.8352509 20.2698509 18.6168326 20.6160903 17.1690821 19.5131064 16.2080436 20.9681732 16.0813749 21.5358113 14.7058389 22.0888527 16.0753038 23.5426562 16.1862142 22.4293877 17.1592588 22.7602496 18.6033412"></polygon>
                        <polygon id="星形" fill="#D54241" points="17.7692308 11.9303226 15.7798038 13.1718265 16.3206985 10.8550639 14.5502703 9.30559285 16.8739886 9.11525872 17.7692308 6.91612903 18.6644729 9.11525872 20.9881913 9.30559285 19.217763 10.8550639 19.7586578 13.1718265"></polygon>
                        <polygon id="星形复制-4" fill="#D54241" transform="translate(24.853084, 12.368974) rotate(-35.000000) translate(-24.853084, -12.368974) " points="24.8367127 13.5333626 23.5767003 14.3165582 23.9316232 12.8752527 22.82687 11.9248825 24.2907498 11.7919469 24.8679872 10.4213902 25.4177919 11.780537 26.8792974 11.8838566 25.7552155 12.856791 26.0812381 14.2912027"></polygon>
                    </g>
                    <path d="M136.105755,25.0709677 L197.423634,25.0709677 C198.20927,25.0709677 198.846154,25.911459 198.846154,26.9482575 L198.846154,249.696904 C198.846154,250.733702 198.20927,251.574194 197.423634,251.574194 L22.5763657,251.574194 C21.7907298,251.574194 21.1538462,250.733702 21.1538462,249.696904 L21.1538462,26.9482575 C21.1538462,25.911459 21.7907298,25.0709677 22.5763657,25.0709677 L82.6100804,25.0709677" id="路径" stroke="#E6E6E6" stroke-width="10.8" fill-rule="nonzero"></path>
                    <path d="M58.4923077,102.012903 L68.4307692,102.012903 C69.4248818,102.012903 70.2307692,102.818791 70.2307692,103.812903 L70.2307692,107.129032 C70.2307692,108.123145 69.4248818,108.929032 68.4307692,108.929032 L58.4923077,108.929032 C57.4981951,108.929032 56.6923077,108.123145 56.6923077,107.129032 L56.6923077,103.812903 C56.6923077,102.818791 57.4981951,102.012903 58.4923077,102.012903 Z" id="矩形" fill="#B5B5B5" fill-rule="nonzero" opacity="0.5"></path>
                    <path d="M80.4923077,102.012903 L161.507692,102.012903 C162.501805,102.012903 163.307692,102.818791 163.307692,103.812903 L163.307692,107.129032 C163.307692,108.123145 162.501805,108.929032 161.507692,108.929032 L80.4923077,108.929032 C79.4981951,108.929032 78.6923077,108.123145 78.6923077,107.129032 L78.6923077,103.812903 C78.6923077,102.818791 79.4981951,102.012903 80.4923077,102.012903 Z" id="矩形复制-4" fill="#B5B5B5" fill-rule="nonzero" opacity="0.5"></path>
                    <path d="M58.4923077,117.574194 L68.4307692,117.574194 C69.4248818,117.574194 70.2307692,118.380081 70.2307692,119.374194 L70.2307692,122.690323 C70.2307692,123.684435 69.4248818,124.490323 68.4307692,124.490323 L58.4923077,124.490323 C57.4981951,124.490323 56.6923077,123.684435 56.6923077,122.690323 L56.6923077,119.374194 C56.6923077,118.380081 57.4981951,117.574194 58.4923077,117.574194 Z" id="矩形复制" fill="#B5B5B5" fill-rule="nonzero" opacity="0.5"></path>
                    <rect id="矩形复制-5" fill="#B5B5B5" fill-rule="nonzero" opacity="0.5" x="78.6923077" y="117.574194" width="44.8461538" height="6.91612903" rx="1.8"></rect>
                    <path d="M58.4923077,133.135484 L68.4307692,133.135484 C69.4248818,133.135484 70.2307692,133.941371 70.2307692,134.935484 L70.2307692,138.251613 C70.2307692,139.245725 69.4248818,140.051613 68.4307692,140.051613 L58.4923077,140.051613 C57.4981951,140.051613 56.6923077,139.245725 56.6923077,138.251613 L56.6923077,134.935484 C56.6923077,133.941371 57.4981951,133.135484 58.4923077,133.135484 Z" id="矩形复制-2" fill="#B5B5B5" fill-rule="nonzero" opacity="0.5"></path>
                    <path d="M58.4923077,148.696774 L68.4307692,148.696774 C69.4248818,148.696774 70.2307692,149.502662 70.2307692,150.496774 L70.2307692,153.812903 C70.2307692,154.807016 69.4248818,155.612903 68.4307692,155.612903 L58.4923077,155.612903 C57.4981951,155.612903 56.6923077,154.807016 56.6923077,153.812903 L56.6923077,150.496774 C56.6923077,149.502662 57.4981951,148.696774 58.4923077,148.696774 Z" id="矩形复制-12" fill="#B5B5B5" fill-rule="nonzero" opacity="0.5"></path>
                    <path d="M80.4923077,133.135484 L147.123077,133.135484 C148.117189,133.135484 148.923077,133.941371 148.923077,134.935484 L148.923077,138.251613 C148.923077,139.245725 148.117189,140.051613 147.123077,140.051613 L80.4923077,140.051613 C79.4981951,140.051613 78.6923077,139.245725 78.6923077,138.251613 L78.6923077,134.935484 C78.6923077,133.941371 79.4981951,133.135484 80.4923077,133.135484 Z" id="矩形复制-6" fill="#B5B5B5" fill-rule="nonzero" opacity="0.5"></path>
                    <path d="M95.7230769,207.483871 L162.353846,207.483871 C163.347959,207.483871 164.153846,208.289758 164.153846,209.283871 L164.153846,212.6 C164.153846,213.594113 163.347959,214.4 162.353846,214.4 L95.7230769,214.4 C94.7289644,214.4 93.9230769,213.594113 93.9230769,212.6 L93.9230769,209.283871 C93.9230769,208.289758 94.7289644,207.483871 95.7230769,207.483871 Z" id="矩形复制-15" fill="#B5B5B5" fill-rule="nonzero" opacity="0.5"></path>
                    <path d="M133.8,219.587097 L162.353846,219.587097 C163.347959,219.587097 164.153846,220.392984 164.153846,221.387097 L164.153846,224.703226 C164.153846,225.697338 163.347959,226.503226 162.353846,226.503226 L133.8,226.503226 C132.805887,226.503226 132,225.697338 132,224.703226 L132,221.387097 C132,220.392984 132.805887,219.587097 133.8,219.587097 Z" id="矩形复制-16" fill="#B5B5B5" fill-rule="nonzero" opacity="0.5"></path>
                    <path d="M80.4923077,148.696774 L163.2,148.696774 C164.194113,148.696774 165,149.502662 165,150.496774 L165,165.916129 C165,166.910242 164.194113,167.716129 163.2,167.716129 L80.4923077,167.716129 C79.4981951,167.716129 78.6923077,166.910242 78.6923077,165.916129 L78.6923077,150.496774 C78.6923077,149.502662 79.4981951,148.696774 80.4923077,148.696774 Z" id="矩形复制-13" fill="#B5B5B5" fill-rule="nonzero" opacity="0.5"></path>
                    <path d="M58.4923077,182.412903 L73.5076923,182.412903 C74.5018049,182.412903 75.3076923,183.218791 75.3076923,184.212903 L75.3076923,199.632258 C75.3076923,200.626371 74.5018049,201.432258 73.5076923,201.432258 L58.4923077,201.432258 C57.4981951,201.432258 56.6923077,200.626371 56.6923077,199.632258 L56.6923077,184.212903 C56.6923077,183.218791 57.4981951,182.412903 58.4923077,182.412903 Z" id="矩形复制-14" fill="#B5B5B5" fill-rule="nonzero" opacity="0.5"></path>
                    <path d="M71.8153846,69.1612903 C72.8094972,69.1612903 73.6153846,69.9671778 73.6153846,70.9612903 L73.6153846,86.3806452 C73.6153846,87.3747577 72.8094972,88.1806452 71.8153846,88.1806452 L58.4923077,88.1806452 C57.4981951,88.1806452 56.6923077,87.3747577 56.6923077,86.3806452 L56.6923077,70.9612903 C56.6923077,69.9671778 57.4981951,69.1612903 58.4923077,69.1612903 L71.8153846,69.1612903 Z M102.276923,69.1612903 C103.271036,69.1612903 104.076923,69.9671778 104.076923,70.9612903 L104.076923,86.3806452 C104.076923,87.3747577 103.271036,88.1806452 102.276923,88.1806452 L88.9538462,88.1806452 C87.9597336,88.1806452 87.1538462,87.3747577 87.1538462,86.3806452 L87.1538462,70.9612903 C87.1538462,69.9671778 87.9597336,69.1612903 88.9538462,69.1612903 L102.276923,69.1612903 Z M131.892308,69.1612903 C132.88642,69.1612903 133.692308,69.9671778 133.692308,70.9612903 L133.692308,86.3806452 C133.692308,87.3747577 132.88642,88.1806452 131.892308,88.1806452 L118.569231,88.1806452 C117.575118,88.1806452 116.769231,87.3747577 116.769231,86.3806452 L116.769231,70.9612903 C116.769231,69.9671778 117.575118,69.1612903 118.569231,69.1612903 L131.892308,69.1612903 Z M162.353846,69.1612903 C163.347959,69.1612903 164.153846,69.9671778 164.153846,70.9612903 L164.153846,86.3806452 C164.153846,87.3747577 163.347959,88.1806452 162.353846,88.1806452 L149.030769,88.1806452 C148.036657,88.1806452 147.230769,87.3747577 147.230769,86.3806452 L147.230769,70.9612903 C147.230769,69.9671778 148.036657,69.1612903 149.030769,69.1612903 L162.353846,69.1612903 Z" id="形状结合复制" fill="#C9B29A" fill-rule="nonzero"></path>
                </g>
                <g id="icon/ok_big-copy-2" transform="translate(210.000000, 264.000000)" fill="#26A872">
                    <path d="M19.2316252,10.5450264 L12.4512863,17.5018603 C12.271826,17.6859921 12.036896,17.7775 11.8019661,17.7775 C11.5670362,17.7775 11.3321063,17.6859921 11.1526459,17.5018603 L6.76837482,13.0034648 C6.41054173,12.6363171 6.41054173,12.0392838 6.76837482,11.6721361 C7.12729554,11.3038725 7.70809454,11.3038725 8.06592763,11.6721361 L11.8019661,15.5054253 L17.9340724,9.21369769 C18.2919055,8.8454341 18.8737921,8.8454341 19.2316252,9.21369769 C19.5894583,9.58084533 19.5894583,10.1778787 19.2316252,10.5450264 M13,0 C5.81966667,0 0,5.81966667 0,13 C0,20.17925 5.81966667,26 13,26 C20.17925,26 26,20.17925 26,13 C26,5.81966667 20.17925,0 13,0"></path>
                </g>
                <g id="示例备份" transform="translate(500.000000, 264.000000)">
                    <g id="编组-8复制-4">
                        <path d="M0,13 C0,20.17925 5.81966667,26 13,26 C20.17925,26 26,20.17925 26,13 C26,5.81966667 20.17925,0 13,0 C5.81966667,0 0,5.81966667 0,13 Z" id="Path" fill="#E1251B"></path>
                        <path d="M13,4.875 C13.4487314,4.875 13.8125,5.23876864 13.8125,5.6875 L13.812,12.187 L20.3125,12.1875 C20.7612314,12.1875 21.125,12.5512686 21.125,13 C21.125,13.4487314 20.7612314,13.8125 20.3125,13.8125 L13.812,13.812 L13.8125,20.3125 C13.8125,20.7612314 13.4487314,21.125 13,21.125 C12.5512686,21.125 12.1875,20.7612314 12.1875,20.3125 L12.187,13.812 L5.6875,13.8125 C5.23876864,13.8125 4.875,13.4487314 4.875,13 C4.875,12.5512686 5.23876864,12.1875 5.6875,12.1875 L12.187,12.187 L12.1875,5.6875 C12.1875,5.23876864 12.5512686,4.875 13,4.875 Z" id="形状结合" fill="#FFFFFF" transform="translate(13.000000, 13.000000) rotate(-45.000000) translate(-13.000000, -13.000000) "></path>
                    </g>
                </g>
            </g>
        </g>
    </g>
</svg>