<?xml version="1.0" encoding="UTF-8"?>
<svg width="31px" height="28px" viewBox="0 0 31 28" version="1.1" xmlns="http://www.w3.org/2000/svg" xmlns:xlink="http://www.w3.org/1999/xlink">
    <title>wenjianjia</title>
    <defs>
        <polygon id="path-1" points="0 0.5 31 0.5 31 26.5 0 26.5"></polygon>
    </defs>
    <g id="Standard-fonts-图标（同商家端规范）" stroke="none" stroke-width="1" fill="none" fill-rule="evenodd">
        <g id="画板" transform="translate(-241.000000, -179.000000)">
            <g id="wenjianjia" transform="translate(241.000000, 179.500000)">
                <mask id="mask-2" fill="white">
                    <use xlink:href="#path-1"></use>
                </mask>
                <g id="Clip-2"></g>
                <path d="M13.9151229,0.5 C14.6677195,0.5 15.3686351,0.874089759 15.776288,1.49298826 L17.9763421,4.8332628 L28.7857606,4.8332628 C30.0085031,4.8332628 31,5.80344174 31,7.00010579 L31,24.3333686 C31,25.5300326 30.0085031,26.5 28.7857606,26.5 L2.21423938,26.5 C0.991323952,26.5 -1.77635684e-14,25.5300326 -1.77635684e-14,24.3333686 L-1.77635684e-14,2.6666314 C-1.77635684e-14,1.47000967 0.991323952,0.5 2.21423938,0.5 L13.9151229,0.5 Z M28.7857606,6.45839505 L2.21423938,6.45839505 C1.90847809,6.45839505 1.66062547,6.7008763 1.66062547,7.00010579 L1.66062547,24.3333686 C1.66062547,24.6325981 1.90847809,24.8750793 2.21423938,24.8750793 L28.7857606,24.8750793 C29.0913489,24.8750793 29.3391583,24.6325981 29.3391583,24.3333686 L29.3391583,7.00010579 C29.3391583,6.7008763 29.0913489,6.45839505 28.7857606,6.45839505 Z M13.9151229,2.12492065 L2.21423938,2.12492065 C1.90847809,2.12492065 1.66062547,2.36744423 1.66062547,2.6666314 L1.66062547,4.90156381 C1.84157388,4.85607212 2.02758227,4.8332628 2.21423938,4.8332628 L16.0006571,4.8332628 L14.3803817,2.37324177 C14.2818634,2.22360587 14.1144516,2.13088747 13.9326815,2.1252592 L13.9151229,2.12492065 Z" id="Fill-1" fill="#212121" mask="url(#mask-2)"></path>
            </g>
        </g>
    </g>
</svg>