<?xml version="1.0" encoding="UTF-8"?>
<svg width="60px" height="60px" viewBox="0 0 60 60" version="1.1" xmlns="http://www.w3.org/2000/svg" xmlns:xlink="http://www.w3.org/1999/xlink">
    <!-- Generator: Sketch 63.1 (92452) - https://sketch.com -->
    <title>icon/ok@2x</title>
    <desc>Created with Sketch.</desc>
    <defs>
        <path d="M44.353,23.6405 L28.768,39.2255 C28.3555,39.638 27.8155,39.843 27.2755,39.843 C26.7355,39.843 26.1955,39.638 25.783,39.2255 L15.7055,29.148 C14.883,28.3255 14.883,26.988 15.7055,26.1655 C16.5305,25.3405 17.8655,25.3405 18.688,26.1655 L27.2755,34.753 L41.3705,20.658 C42.193,19.833 43.5305,19.833 44.353,20.658 C45.1755,21.4805 45.1755,22.818 44.353,23.6405 M30.0005,0.0005 C13.4305,0.0005 0.0005,13.4305 0.0005,30.0005 C0.0005,46.568 13.4305,60.0005 30.0005,60.0005 C46.568,60.0005 60.0005,46.568 60.0005,30.0005 C60.0005,13.4305 46.568,0.0005 30.0005,0.0005" id="path-1"></path>
        <rect id="path-3" x="0" y="0" width="60" height="60"></rect>
    </defs>
    <g id="2-个人中心-商家身份认证" stroke="none" stroke-width="1" fill="none" fill-rule="evenodd">
        <g id="4.4个人中心-商家身份认证通过" transform="translate(-753.000000, -320.000000)">
            <g id="ok" transform="translate(753.000000, 320.000000)">
                <mask id="mask-2" fill="white">
                    <use xlink:href="#path-1"></use>
                </mask>
                <use id="Fill-1" fill="#FFFFFF" fill-rule="evenodd" xlink:href="#path-1"></use>
                <g id="色值/green8" mask="url(#mask-2)" fill-rule="evenodd">
                    <g id="色值-blue1">
                        <use fill="#FFFFFF" xlink:href="#path-3"></use>
                        <use fill="#26A872" xlink:href="#path-3"></use>
                    </g>
                </g>
            </g>
        </g>
    </g>
</svg>