<?xml version="1.0" standalone="no"?><!DOCTYPE svg PUBLIC "-//W3C//DTD SVG 1.1//EN" "http://www.w3.org/Graphics/SVG/1.1/DTD/svg11.dtd"><svg t="1589640891239" class="icon" viewBox="0 0 1024 1024" version="1.1" xmlns="http://www.w3.org/2000/svg" p-id="9441" xmlns:xlink="http://www.w3.org/1999/xlink" width="128" height="128"><defs><style type="text/css"></style></defs><path d="M930.816 512c-25.6 0-46.08-20.48-46.08-46.08V148.48H142.848v114.176c0 25.6-20.48 46.08-46.08 46.08s-46.08-20.48-46.08-46.08V102.4c0-25.6 20.48-46.08 46.08-46.08h834.048c25.6 0 46.08 20.48 46.08 46.08v363.52c0 25.6-20.48 46.08-46.08 46.08z" p-id="9442"></path><path d="M96.768 438.272c-49.664 0-89.6-40.448-89.6-89.6s40.448-89.6 89.6-89.6 89.6 40.448 89.6 89.6-40.448 89.6-89.6 89.6z m0-128.512c-21.504 0-38.4 17.408-38.4 38.4s17.408 38.4 38.4 38.4 38.4-17.408 38.4-38.4-17.408-38.4-38.4-38.4z" p-id="9443"></path><path d="M930.816 966.656H96.768c-25.6 0-46.08-20.48-46.08-46.08v-363.52c0-25.6 20.48-46.08 46.08-46.08s46.08 20.48 46.08 46.08v317.44h741.888v-114.176c0-25.6 20.48-46.08 46.08-46.08s46.08 20.48 46.08 46.08v160.256c0 25.6-20.48 46.08-46.08 46.08z" p-id="9444"></path><path d="M930.816 764.416c-49.664 0-89.6-40.448-89.6-89.6 0-49.664 40.448-89.6 89.6-89.6s89.6 40.448 89.6 89.6-39.936 89.6-89.6 89.6z m0-128.512c-21.504 0-38.4 17.408-38.4 38.4 0 21.504 17.408 38.4 38.4 38.4s38.4-17.408 38.4-38.4-16.896-38.4-38.4-38.4z" p-id="9445"></path><path d="M454.144 620.544h-48.128L379.904 558.08H278.016l-26.112 62.464h-48.128l105.472-255.488h39.424l105.472 255.488z m-93.184-107.52L329.216 435.2 296.96 513.024h64zM668.16 440.832c0 24.576-9.216 43.52-27.136 57.344-16.384 11.776-36.864 17.92-61.44 17.92h-48.128v104.448h-44.032V365.568h92.16c25.088 0 45.568 5.632 61.44 16.384 17.92 12.8 27.136 32.768 27.136 58.88z m-47.104 0c0-19.968-13.824-30.208-41.984-30.208h-47.104V471.04h47.104c27.648 0 41.984-10.24 41.984-30.208zM776.704 620.544H732.16V365.568h44.032v254.976z" p-id="9446"></path></svg>