<?xml version="1.0" standalone="no"?><!DOCTYPE svg PUBLIC "-//W3C//DTD SVG 1.1//EN" "http://www.w3.org/Graphics/SVG/1.1/DTD/svg11.dtd"><svg t="1589640675748" class="icon" viewBox="0 0 1024 1024" version="1.1" xmlns="http://www.w3.org/2000/svg" p-id="7125" xmlns:xlink="http://www.w3.org/1999/xlink" width="128" height="128"><defs><style type="text/css"></style></defs><path d="M185.267153 1024H838.296992c60.098478 0 108.790429-48.254115 108.790429-107.912775 0-193.59892-158.359043-350.349261-353.567655-350.34926H430.3366c-195.353237 0-353.566664 156.896947-353.566664 350.34926-0.437836 59.513045 48.39973 107.912775 108.498207 107.912775z m244.776235-404.306143h163.185148c165.231685 0 299.31756 132.916 299.31756 296.539974 0 29.82933-24.273168 53.809286-54.248113 53.809286H185.118566c-30.120561 0-54.248113-24.272177-54.248113-53.809286-0.145615-163.916195 133.94026-296.539974 299.171945-296.539974z m81.592079-80.715416c150.317516 0 271.974585-120.63281 271.974585-269.48823S661.953973 0.000991 511.636457 0.000991 239.660881 120.634791 239.660881 269.490211c-0.146606 148.562208 121.950281 269.48823 271.973595 269.48823z m0-485.312789c120.34158 0 217.872088 96.652854 217.872087 215.824559s-97.530508 215.824559-217.872087 215.824559S293.76536 388.661916 293.76536 269.343605c0.292221-119.025099 97.822729-215.678944 217.871097-215.678943z" p-id="7126"></path></svg>