<?xml version="1.0" standalone="no"?><!DOCTYPE svg PUBLIC "-//W3C//DTD SVG 1.1//EN" "http://www.w3.org/Graphics/SVG/1.1/DTD/svg11.dtd"><svg t="1589640764865" class="icon" viewBox="0 0 1097 1024" version="1.1" xmlns="http://www.w3.org/2000/svg" p-id="7871" xmlns:xlink="http://www.w3.org/1999/xlink" width="137.125" height="128"><defs><style type="text/css"></style></defs><path d="M529.71452 3.060256c22.914503 7.662251 45.996727 14.861334 68.709965 23.084804 58.538356 21.188271 96.867672 64.043462 128.357857 116.106513 33.252542 54.98139 44.114386 114.066773 25.912832 173.66177C721.198537 419.046024 648.842584 502.240597 527.634784 514.632568c-57.630085 5.888283-116.763204 3.291194-171.342064 27.017207-29.175642 12.684837-58.872507 25.516753-85.338817 42.855191-126.030412 82.557235-171.193696 204.270777-165.03319 349.701301 0.098052 2.326156 1.563672 4.592964 3.496329 9.954862h28.896968c122.419259 0 244.841098 0.429623 367.253905-0.430913 20.098087-0.140627 32.945485 4.256233 40.736751 24.207242 5.37609 13.771151 15.493512 25.692214 25.311618 41.340545-9.304622 0.7341-16.275348 1.758486-23.247364 1.763646-155.345391 0.091601-310.690782 0.112244-466.036173 0.039995-37.329443-0.018062-48.279017-11.256632-48.908614-47.821011-1.324993-76.924404-2.287451-154.11329 27.502307-226.842098 48.191286-117.653414 133.141765-199.747482 249.155387-250.433934 7.480338-3.269261 14.982609-6.488207 21.692723-9.394933-16.544991-17.893207-32.955806-34.399493-47.97841-52.087565-97.873995-115.226626-73.360986-295.274679 53.973776-376.274692 33.126107-21.072157 73.705458-30.428386 110.86202-45.165865l81.082584-0.00129z m-41.585676 447.184378c108.25461 1.355956 196.590464-80.929055 199.393979-182.829635 3.151857-114.617671-87.837853-193.384421-192.950928-197.003315-100.525271-3.460205-201.100858 75.352991-203.837283 184.430721-2.815126 112.210235 92.999777 195.533824 197.394232 195.402229z" p-id="7872"></path><path d="M889.580978 1024c-17.979647-10.528983-32.452644-16.674007-44.093743-26.257303-34.831696-28.685382-46.465054-29.250471-80.656832 0.037414-25.814779 22.112025-43.464146 24.087257-73.104244 8.026075-9.634903-5.219981-19.136919-10.688962-28.687962-16.063762-42.770041-24.070485-44.776237-28.486697-34.45884-75.776162 6.901057-31.625652-16.474032-61.309617-54.150528-64.300204-24.791684-1.966201-38.93956-13.679549-40.031034-36.648239-1.666885-35.018769-1.392081-70.332984 1.281127-105.274344 1.38176-18.053186 14.58395-28.565397 34.607208-30.592235 47.9797-4.849705 67.897165-33.106754 54.502741-77.684307-7.40938-24.656217 1.366278-40.940596 21.599832-53.083567 14.436872-8.660833 29.40787-16.437908 44.160831-24.571066 34.324664-18.925333 48.658323-17.544864 79.629866 7.627416 29.65042 24.098868 43.322228 24.167247 73.433235 0.376726 31.334077-24.758139 45.401964-25.995401 79.868545-6.982337 8.859518 4.88712 17.716455 9.77811 26.528237 14.752961 41.828225 23.613769 43.880867 28.057074 34.275637 73.806091-7.009431 33.390589 14.402038 62.112095 52.425586 65.269113 25.746401 2.136502 40.476139 13.947902 41.434727 38.211911 1.38692 35.070375 0.837313 70.393622-1.888792 105.371105-1.331443 17.088148-13.977576 27.240404-32.984189 28.940833-46.503759 4.15302-72.914591 39.229846-56.028998 79.66212 4.078191 9.763919 2.351959 29.789757-4.403311 34.882012-28.924061 21.797226-60.727755 39.775583-93.259099 60.269749zM678.819414 588.990847c9.643934 71.620562-15.493512 119.685413-73.23068 133.940373-25.458695 6.284361-25.165829 22.207496-25.278073 40.945756-0.114824 19.249163 1.295319 34.629141 26.346324 40.583222 17.504869 4.162051 35.18907 16.249545 48.067431 29.418192 28.067396 28.703444 32.052695 65.24589 23.274458 103.631972 5.250945 3.159598 9.810364 5.354157 13.749218 8.362807 16.741095 12.78805 31.158615 15.796699 50.701934 0.962458 24.304004-18.447975 53.626723-30.928967 85.155614-19.718781 18.73697 6.663668 35.398076 19.005323 53.43707 27.889354 5.078063 2.500327 12.746765 4.15173 17.466164 2.11586 12.802242-5.525748 24.658797-13.238315 35.985098-19.578154-12.935128-64.954314 15.405781-120.351135 69.153779-133.10177 25.001979-5.932148 28.504759-19.678786 28.565397-41.176695 0.060637-21.592091-3.058966-37.408142-28.646676-41.041228-10.212894-1.450138-20.798643-7.062327-29.182093-13.446031-39.773003-30.296789-51.225739-71.03225-40.205206-119.100971-21.886247-13.68342-40.343253-32.361043-68.635136-10.349651-38.815705 30.197447-79.391186 27.797753-118.636514-1.63076-16.237933-12.176515-32.622945-14.124654-49.343397-0.027093-5.641863 4.754234-12.748055 7.770624-18.744712 11.32114z" p-id="7873"></path><path d="M909.671325 764.096303c-0.374146 61.734079-50.243928 100.001467-105.734931 98.528106-59.013135-1.568833-103.262987-38.312543-103.331365-100.767821-0.068378-61.402508 50.276182-99.967922 105.56592-98.535846 58.48933 1.514646 103.688739 39.09696 103.500376 100.775561z m-105.857496-47.731989c-26.043137 0.446395-46.410868 20.912177-46.382484 46.605681 0.028383 26.72176 21.688853 47.575881 48.809272 47.00047 25.9038-0.552188 46.133484-21.073447 46.235406-46.904998 0.105793-27.009466-20.908307-47.175931-48.662194-46.701153z" p-id="7874"></path></svg>