<?xml version="1.0" encoding="UTF-8"?>
<svg width="170px" height="107px" viewBox="0 0 170 107" version="1.1" xmlns="http://www.w3.org/2000/svg" xmlns:xlink="http://www.w3.org/1999/xlink">
    <title>空状态@4x</title>
    <defs>
        <linearGradient x1="50%" y1="50%" x2="50%" y2="-24.5616319%" id="linearGradient-1">
            <stop stop-color="#F3F7FF" stop-opacity="0" offset="0%"></stop>
            <stop stop-color="#D1D8E6" offset="100%"></stop>
        </linearGradient>
        <linearGradient x1="75.345661%" y1="52.0685971%" x2="73.4768435%" y2="19.7751664%" id="linearGradient-2">
            <stop stop-color="#8F9BB5" stop-opacity="0" offset="0%"></stop>
            <stop stop-color="#EAF0FA" offset="100%"></stop>
        </linearGradient>
        <linearGradient x1="49.9999999%" y1="-13.372231%" x2="49.9999999%" y2="85.1516912%" id="linearGradient-3">
            <stop stop-color="#CAD1DF" offset="0%"></stop>
            <stop stop-color="#E5EBF6" offset="58.1424198%"></stop>
            <stop stop-color="#F0F4FA" offset="100%"></stop>
        </linearGradient>
        <linearGradient x1="49.9999999%" y1="-13.372231%" x2="49.9999999%" y2="85.1516912%" id="linearGradient-4">
            <stop stop-color="#CAD1DF" offset="0%"></stop>
            <stop stop-color="#E5EBF6" offset="58.1424198%"></stop>
            <stop stop-color="#F0F4FA" offset="100%"></stop>
        </linearGradient>
        <linearGradient x1="49.9999999%" y1="-13.372231%" x2="49.9999999%" y2="85.1516912%" id="linearGradient-5">
            <stop stop-color="#CAD1DF" offset="0%"></stop>
            <stop stop-color="#E5EBF6" offset="58.1424198%"></stop>
            <stop stop-color="#F0F4FA" offset="100%"></stop>
        </linearGradient>
        <linearGradient x1="49.9999999%" y1="-13.372231%" x2="49.9999999%" y2="85.1516912%" id="linearGradient-6">
            <stop stop-color="#CAD1DF" offset="0%"></stop>
            <stop stop-color="#E5EBF6" offset="58.1424198%"></stop>
            <stop stop-color="#F0F4FA" offset="100%"></stop>
        </linearGradient>
        <linearGradient x1="50%" y1="0%" x2="50%" y2="100%" id="linearGradient-7">
            <stop stop-color="#D1D6E2" offset="0%"></stop>
            <stop stop-color="#999FA9" offset="100%"></stop>
        </linearGradient>
        <linearGradient x1="50%" y1="0%" x2="50%" y2="100%" id="linearGradient-8">
            <stop stop-color="#D9E1ED" offset="0%"></stop>
            <stop stop-color="#B8C0CD" offset="100%"></stop>
        </linearGradient>
        <linearGradient x1="76.9612659%" y1="46.2198421%" x2="57.3039859%" y2="50%" id="linearGradient-9">
            <stop stop-color="#F7F9FE" stop-opacity="0" offset="0%"></stop>
            <stop stop-color="#8C929D" offset="100%"></stop>
        </linearGradient>
        <linearGradient x1="50%" y1="0.175240756%" x2="50%" y2="99.0973395%" id="linearGradient-10">
            <stop stop-color="#F2F3F6" offset="0%"></stop>
            <stop stop-color="#DAE0EA" offset="100%"></stop>
        </linearGradient>
        <linearGradient x1="63.8007809%" y1="50%" x2="4.01856787%" y2="74.4716924%" id="linearGradient-11">
            <stop stop-color="#E0E3E7" offset="0%"></stop>
            <stop stop-color="#BCC2CC" offset="100%"></stop>
        </linearGradient>
        <linearGradient x1="55.1260092%" y1="31.1847835%" x2="61.9362956%" y2="62.1793586%" id="linearGradient-12">
            <stop stop-color="#F2F3F6" offset="0%"></stop>
            <stop stop-color="#DAE0EA" offset="100%"></stop>
        </linearGradient>
        <linearGradient x1="27.6418937%" y1="36.6790829%" x2="91.900202%" y2="64.3558243%" id="linearGradient-13">
            <stop stop-color="#F2F3F6" offset="0%"></stop>
            <stop stop-color="#DAE0EA" offset="100%"></stop>
        </linearGradient>
        <linearGradient x1="50%" y1="0%" x2="50%" y2="100%" id="linearGradient-14">
            <stop stop-color="#CAD1DF" offset="0%"></stop>
            <stop stop-color="#E5EBF6" offset="100%"></stop>
        </linearGradient>
        <linearGradient x1="13.7616442%" y1="50%" x2="97.4754729%" y2="52.3785945%" id="linearGradient-15">
            <stop stop-color="#8F9BB5" stop-opacity="0" offset="0%"></stop>
            <stop stop-color="#A3ADBF" offset="100%"></stop>
        </linearGradient>
    </defs>
    <g id="1366" stroke="none" stroke-width="1" fill="none" fill-rule="evenodd">
        <g id="2.10控件-缺省页" transform="translate(-1102.000000, -167.000000)">
            <g id="空状态" transform="translate(1103.000000, 167.000000)">
                <ellipse id="椭圆形-copy-3" stroke="#FFFFFF" stroke-width="0.529968454" fill="url(#linearGradient-1)" cx="84" cy="82.0447761" rx="84" ry="23.9552239"></ellipse>
                <path d="M157.930599,47.6738579 L10.5993691,47.9104478 L10.5993691,32.4579912 L13.5859317,30.9152282 L14.6091168,30.3072289 C14.6091168,30.3072289 23.7191628,33.0563452 31.5260462,31.0681937 C39.3329296,29.0800422 38.3589633,27.9857069 41.4285185,23.5396639 C44.4980737,19.0936209 50.7024904,27.9308329 57.3712427,27.5059514 C66.7443729,26.9087679 68.8824118,22.6496828 81.2154541,8.38217245 C93.5484965,-5.88533786 98.0843024,0.414226149 107.112776,9.88263671 C116.14125,19.3510473 114.875861,12.9464161 125.08794,13.4933836 C135.300019,14.0403512 142.036774,41.82136 157.917936,42.8071377 L157.930599,47.6738579 Z" id="Path-2-Copy" fill="url(#linearGradient-2)" opacity="0.8"></path>
                <path d="M120.879073,50.183068 L124.931773,54.1135172 L122.064389,54.113068 L125.555266,57.3852922 L122.68236,57.3859397 C122.805312,57.5116998 122.931625,57.6374599 123.061296,57.76322 C123.944577,58.6198563 124.983731,59.4764927 126.178758,60.3331291 L115.579389,60.3331291 C116.818539,59.4878174 117.782019,58.7468437 118.46983,58.1102081 C118.692487,57.9041177 118.927224,57.6628521 119.17404,57.3864111 L116.202881,57.3852922 L119.692389,54.113068 L116.826373,54.1135172 L120.879073,50.183068 Z" id="形状结合复制-2-copy" fill="url(#linearGradient-3)" opacity="0.9" transform="translate(120.879073, 55.258099) rotate(7.000000) translate(-120.879073, -55.258099) "></path>
                <path d="M114.767314,34.913246 L117.604204,37.6645604 L115.597534,37.664246 L118.040648,39.9548029 L116.028883,39.954509 C116.115181,40.0427901 116.203843,40.1310713 116.29487,40.2193524 C116.913166,40.8189979 117.640574,41.4186433 118.477093,42.0182888 L111.057534,42.0182888 C111.924939,41.4265706 112.599376,40.907889 113.080844,40.4622441 C113.236875,40.3178221 113.40138,40.1487232 113.57436,39.9549475 L111.493979,39.9548029 L113.935534,37.664246 L111.930424,37.6645604 L114.767314,34.913246 Z" id="形状结合复制-copy" fill="url(#linearGradient-4)" opacity="0.6" transform="translate(114.767314, 38.465767) rotate(5.000000) translate(-114.767314, -38.465767) "></path>
                <path d="M35.1859371,49.5095187 L40.4856216,54.3005634 L37.143248,54.3005187 L41.6687713,58.2534764 L37.062282,58.2531967 C37.4217393,58.6347475 37.8072213,59.0162983 38.2187279,59.3978491 C39.3669928,60.4625257 40.7178928,61.5272023 42.2714278,62.5918789 L28.492248,62.5918789 C30.1031429,61.5412772 31.3556676,60.6203528 32.2498222,59.8291057 C32.7152164,59.4172733 33.2212059,58.8924244 33.7677906,58.2545589 L29.4794969,58.2534764 L34.003248,54.3005187 L29.8862525,54.3005634 L35.1859371,49.5095187 Z" id="形状结合-copy" fill="url(#linearGradient-5)" opacity="0.9" transform="translate(35.381838, 56.050699) rotate(-11.000000) translate(-35.381838, -56.050699) "></path>
                <path d="M53.5268139,28.2139303 L55.5531639,30.1791549 L54.1189716,30.1789303 L55.86491,31.8150424 L54.4281117,31.815013 C54.489697,31.8780108 54.5529682,31.9410086 54.6179254,32.0040063 C55.0595658,32.4323245 55.5791427,32.8606427 56.1766562,33.2889609 L50.8769716,33.2889609 C51.4965466,32.866305 51.9782869,32.4958182 52.3221925,32.1775004 C52.4330425,32.074898 52.5498806,31.9548587 52.6727066,31.8173826 L51.1887178,31.8150424 L52.9329716,30.1789303 L51.5004639,30.1791549 L53.5268139,28.2139303 Z" id="形状结合复制-copy" fill="url(#linearGradient-6)" opacity="0.5"></path>
                <g id="分组" transform="translate(48.757098, 32.472637)">
                    <polygon id="矩形-copy-3" fill="url(#linearGradient-7)" points="9.78354186 6.56772261 34.0718987 0 34.0718987 14.869035 31.8114824 15.0416794"></polygon>
                    <polygon id="矩形-copy-4" fill="url(#linearGradient-8)" opacity="0.85" points="34.0718987 0 58.3602555 7.76930993 34.0718987 15.5647378"></polygon>
                    <polygon id="矩形" fill="url(#linearGradient-9)" points="9.78354186 37.4150724 64.6613234 29.7968587 78.7958891 34.3098278 31.8114824 47.3080099"></polygon>
                    <path d="M9.78354186,6.56772261 C9.78354186,6.56772261 17.1261887,9.39237486 31.8114824,15.0416794 L31.8114824,47.0544048 L9.78354186,37.3605725 C9.78354186,16.8320059 9.78354186,6.56772261 9.78354186,6.56772261 Z" id="路径-18" fill="url(#linearGradient-10)"></path>
                    <polygon id="矩形" fill="url(#linearGradient-11)" points="31.8114824 15.0416794 58.3602555 7.76930993 58.3602555 38.8710162 31.8114824 47.0544048"></polygon>
                    <path d="M35.1676005,42.4947599 C35.0272969,42.5365667 34.8798182,42.4562108 34.8381974,42.3152798 C34.7965767,42.1743489 34.8765749,42.0262107 35.0168785,41.9844038 L39.2759397,40.7153131 C39.4162432,40.6735062 39.563722,40.7538622 39.6053427,40.8947931 C39.6469635,41.0357241 39.5669652,41.1838623 39.4266617,41.2256692 L35.1676005,42.4947599 Z" id="路径-8" fill="#EFEFEF" fill-rule="nonzero"></path>
                    <path d="M36.2359979,41.356878 C36.2359979,41.5038792 36.1173604,41.6230472 35.9710137,41.6230472 C35.8246669,41.6230472 35.7060295,41.5038792 35.7060295,41.356878 L35.7060295,38.4145319 C35.7060295,38.2675308 35.8246669,38.1483628 35.9710137,38.1483628 C36.1173604,38.1483628 36.2359979,38.2675308 36.2359979,38.4145319 L36.2359979,41.356878 Z" id="直线" fill="#EFEFEF" fill-rule="nonzero"></path>
                    <path d="M38.5793959,40.505896 C38.5793959,40.6528972 38.4607584,40.7720652 38.3144116,40.7720652 C38.1680649,40.7720652 38.0494274,40.6528972 38.0494274,40.505896 L38.0494274,37.5635499 C38.0494274,37.4165488 38.1680649,37.2973808 38.3144116,37.2973808 C38.4607584,37.2973808 38.5793959,37.4165488 38.5793959,37.5635499 L38.5793959,40.505896 Z" id="直线复制-4" fill="#EFEFEF" fill-rule="nonzero"></path>
                    <path d="M37.7482329,38.5781167 C37.6582898,38.6940781 37.4917896,38.7148441 37.3763444,38.6244987 C37.2608992,38.5341533 37.2402257,38.3669086 37.3301689,38.2509472 L38.2848056,37.0201583 L39.2262867,37.9164886 C39.3325044,38.0176124 39.3369988,38.1860809 39.2363252,38.2927735 C39.1356516,38.3994662 38.9679331,38.4039807 38.8617154,38.3028569 L38.3440177,37.8099865 L37.7482329,38.5781167 Z" id="路径-9复制-2" fill="#EFEFEF" fill-rule="nonzero"></path>
                    <path d="M35.3021349,39.4176369 C35.2128071,39.5340773 35.0464193,39.5557326 34.9304972,39.4660054 C34.8145752,39.3762782 34.7930163,39.2091463 34.882344,39.0927059 L35.9240371,37.7348395 L36.8867805,38.4912665 C37.0020521,38.5818353 37.0224045,38.7491197 36.9322389,38.8649067 C36.8420733,38.9806938 36.6755336,39.0011372 36.560262,38.9105684 L36.0179903,38.4845059 L35.3021349,39.4176369 Z" id="路径-9" fill="#EFEFEF" fill-rule="nonzero"></path>
                    <polygon id="矩形-copy-2" fill="url(#linearGradient-12)" points="9.78354186 6.56772261 31.8114824 14.8620164 21.349324 27.6637026 0 16.9563488"></polygon>
                    <polygon id="矩形复制-2-copy" fill="url(#linearGradient-13)" points="58.3602555 7.76930993 67.3142624 18.3498941 39.798353 28.5023451 31.8114824 14.8620164"></polygon>
                </g>
                <g id="树叶-copy-2备份-copy" transform="translate(119.242902, 21.027363) scale(-1, 1) rotate(-118.000000) translate(-119.242902, -21.027363) translate(115.003155, 18.631841)" fill="url(#linearGradient-14)">
                    <path d="M8.46944327,1.6091766 C7.92996311,2.4241411 7.17605499,3.13021989 6.38228374,3.69824364 C5.7361694,4.15963584 5.00807193,4.63555757 4.20286668,4.75713518 C3.78984627,4.82057018 3.29823429,4.79707301 2.89962795,4.66912494 C2.31996047,4.48373256 1.81013139,4.11226173 1.31777127,3.77058502 C1.02962707,3.57105513 0.802992032,3.66619537 0.586618917,3.91456947 C0.452216461,4.06899167 0.459448433,4.3976212 0.336068499,4.52141623 C0.178523734,4.68146157 0.00808610794,4.65273328 0.000106001089,4.36813336 C-0.00899630828,3.97316537 0.570284635,3.52257844 0.899426636,3.40134385 C0.717966488,2.78408386 1.14541343,1.73003141 1.54971806,1.27162843 C3.08832007,-0.469820228 5.69744094,-0.226640495 7.54544665,0.828526779 C7.62857692,0.876648189 8.58748651,1.42866006 8.46944327,1.6091766 L8.46944327,1.6091766 Z" id="路径"></path>
                </g>
                <path d="M76.0853498,27.9529438 C76.2385468,28.0835673 76.4033078,28.2266914 76.5912846,28.3921318 C76.6938333,28.482386 76.8500841,28.4723662 76.9402807,28.3697519 C77.0304772,28.2671377 77.0204638,28.1107869 76.9179151,28.0205328 C76.72813,27.8535008 76.5614772,27.7087334 76.4061155,27.5762642 C76.3021647,27.4876305 76.1460901,27.5001014 76.0575131,27.6041186 C75.9689361,27.7081358 75.981399,27.8643102 76.0853498,27.9529438 Z M77.2712604,28.9957368 C77.5201176,29.2175355 77.6320856,29.3171951 77.7752424,29.4441133 C77.8774633,29.5347391 78.0337494,29.5252864 78.1243173,29.4230002 C78.2148852,29.320714 78.2054385,29.1643279 78.1032177,29.0737022 C77.9604908,28.9471651 77.848743,28.8477014 77.6002065,28.6261886 C77.4982237,28.5352946 77.3419133,28.5443366 77.2510774,28.6463846 C77.1602414,28.7484325 77.1692777,28.9048428 77.2712604,28.9957368 Z M78.4610846,30.0464825 C78.6369822,30.199169 78.8071368,30.3452417 78.9746996,30.4872484 C79.0789156,30.5755697 79.2349521,30.5626305 79.3232169,30.4583479 C79.4114818,30.3540654 79.3985509,30.1979291 79.2943349,30.1096078 C79.1283209,29.9689137 78.9596399,29.824106 78.7851669,29.6726562 C78.6820035,29.5831061 78.5258248,29.5941953 78.436332,29.6974246 C78.3468391,29.8006539 78.3579212,29.9569325 78.4610846,30.0464825 Z M79.678848,31.0721095 C79.857085,31.2169424 80.0335934,31.3577957 80.209216,31.4952084 C80.3168017,31.5793868 80.4722137,31.5603558 80.5563384,31.4527013 C80.6404631,31.3450468 80.6214442,31.1895355 80.5138584,31.105357 C80.3406786,30.9698556 80.1665419,30.8308949 79.9906185,30.687942 C79.8846013,30.6017939 79.7288652,30.617956 79.6427722,30.7240409 C79.5566792,30.8301258 79.5728309,30.9859615 79.678848,31.0721095 Z M80.9413607,32.0515924 C81.1258869,32.1875442 81.3098483,32.3197596 81.4936174,32.4483863 C81.6055276,32.5267163 81.7597072,32.4994362 81.8379872,32.3874544 C81.9162672,32.2754727 81.8890045,32.1211945 81.7770943,32.0428645 C81.596654,31.9165678 81.415942,31.7866878 81.2345953,31.6530785 C81.1246191,31.5720523 80.9698229,31.5955779 80.8888484,31.7056244 C80.8078739,31.815671 80.8313845,31.9705661 80.9413607,32.0515924 Z M82.2574469,32.9627687 C82.4500064,33.0872568 82.6425161,33.2077339 82.8351834,33.3242175 C82.9520751,33.3948884 83.1040879,33.3573585 83.1747136,33.2403921 C83.2453394,33.1234258 83.2078334,32.9713157 83.0909418,32.9006449 C82.9025735,32.7867603 82.7142707,32.668916 82.5258341,32.5470934 C82.4111219,32.4729329 82.2580487,32.5058661 82.1839356,32.6206517 C82.1098225,32.7354372 82.1427346,32.8886083 82.2574469,32.9627687 Z M83.637947,33.7856602 C83.8395213,33.8954755 84.0413266,34.0008206 84.243494,34.1016563 C84.3657223,34.1626206 84.5141976,34.112893 84.5751229,33.9905866 C84.6360482,33.8682801 84.5863524,33.7197099 84.4641241,33.6587456 C84.2673442,33.560597 84.0708216,33.4580095 83.8744319,33.3510188 C83.7544856,33.2856736 83.604311,33.3299986 83.5390075,33.4500215 C83.473704,33.5700444 83.5180007,33.720315 83.637947,33.7856602 Z M85.089164,34.4959525 C85.2999143,34.5873292 85.5110648,34.6737095 85.7227038,34.7550256 C85.8501991,34.804012 85.9932403,34.7403018 86.0421954,34.612725 C86.0911505,34.4851482 86.027481,34.3420155 85.8999857,34.2930292 C85.694906,34.2142332 85.4902041,34.130491 85.2857953,34.0418639 C85.1604823,33.987531 85.0148787,34.0451366 84.9605804,34.1705297 C84.9062822,34.2959228 84.963851,34.4416196 85.089164,34.4959525 Z M86.5880247,35.0581588 C86.8070454,35.1274418 87.026565,35.1912207 87.2466446,35.2494137 C87.3786834,35.2843271 87.5140069,35.205523 87.548898,35.0733997 C87.5837891,34.9412765 87.5050353,34.8058665 87.3729965,34.770953 C87.1605941,34.7147901 86.9486491,34.6532119 86.7370999,34.5862923 C86.6068809,34.5451 86.4679458,34.617338 86.4267798,34.7476403 C86.3856138,34.8779426 86.4578056,35.0169665 86.5880247,35.0581588 Z M88.1590339,35.4577842 C88.3843311,35.5011123 88.6101724,35.5385233 88.836599,35.5699309 C88.9718764,35.5886953 89.0967423,35.4941726 89.1154946,35.3588086 C89.134247,35.2234447 89.0397847,35.098499 88.9045072,35.0797347 C88.6866351,35.0495136 88.4692741,35.0135074 88.2523777,34.9717949 C88.1182612,34.9460023 87.9886425,35.0338856 87.9628663,35.1680878 C87.9370902,35.3022901 88.0249173,35.4319916 88.1590339,35.4577842 Z M89.7697622,35.6649239 C89.9978274,35.6797234 90.2264341,35.6883891 90.4556091,35.6908387 C90.4620872,35.6909063 90.4620872,35.6909063 90.4624471,35.69091 C90.5990111,35.6923011 90.7108451,35.5826511 90.7122353,35.4459998 C90.7136255,35.3093486 90.6040456,35.1974431 90.4674816,35.196052 C90.4672507,35.1960496 90.4672507,35.1960496 90.4608288,35.1959826 C90.2406556,35.1936293 90.0209596,35.1853014 89.8017678,35.1710776 C89.6654831,35.1622339 89.5478377,35.2656159 89.5389996,35.4019877 C89.5301615,35.5383596 89.6334775,35.6560802 89.7697622,35.6649239 Z M91.3765443,35.6940622 C91.6027367,35.6933105 91.8284345,35.6914161 92.0533882,35.6883747 C92.1899467,35.6865285 92.2991536,35.5742585 92.2973086,35.4376126 C92.2954635,35.3009667 92.1832652,35.19169 92.0467066,35.1935363 C91.8234371,35.1965548 91.5994189,35.1984352 91.3749017,35.1991814 C91.2383315,35.1996352 91.1279871,35.310786 91.1284393,35.4474436 C91.1288943,35.5841012 91.239974,35.6945161 91.3765443,35.6940622 Z M92.9655496,35.669617 C93.1924263,35.6633297 93.418039,35.655848 93.6421543,35.6471714 C93.7786233,35.641888 93.8849729,35.5269044 93.8796929,35.3903482 C93.8744129,35.253792 93.7595027,35.1473744 93.6230338,35.1526578 C93.4007362,35.161264 93.176933,35.1686857 92.951858,35.174923 C92.8153393,35.1787063 92.707734,35.2925142 92.7115149,35.4291201 C92.7152957,35.5657261 92.8290309,35.6734002 92.9655496,35.669617 Z M94.555412,35.6047179 C94.7829126,35.5923306 95.0083306,35.5786675 95.2314434,35.5637313 C95.3677098,35.554609 95.4707852,35.4366775 95.4616687,35.300324 C95.4525522,35.1639705 95.3346961,35.0608292 95.1984297,35.0699515 C94.9773771,35.0847498 94.754006,35.0982888 94.5285401,35.1105653 C94.3921708,35.1179905 94.2876371,35.2346297 94.2950576,35.3710861 C94.3024781,35.5075426 94.4190427,35.6121431 94.555412,35.6047179 Z M96.1452472,35.4942989 C96.3733446,35.4748318 96.5984079,35.4539644 96.8202188,35.4317022 C96.956108,35.4180635 97.0552187,35.2967768 97.0415887,35.1608008 C97.0279588,35.0248247 96.9067496,34.9256507 96.7708604,34.9392893 C96.5515127,34.9613043 96.3288917,34.9819453 96.1032178,35.0012055 C95.9671408,35.012819 95.8662372,35.1326163 95.8778433,35.2687803 C95.8894494,35.4049443 96.0091702,35.5059124 96.1452472,35.4942989 Z M97.7318464,35.3300454 C97.9603065,35.3018957 98.1845213,35.272155 98.404269,35.2408313 C98.539475,35.2215585 98.6334675,35.0962586 98.614207,34.9609661 C98.5949465,34.8256736 98.4697266,34.731621 98.3345205,34.7508938 C98.1179074,34.7817707 97.8967933,34.8111001 97.6714039,34.8388714 C97.5358566,34.8555728 97.4395043,34.979065 97.456195,35.114699 C97.4728858,35.2503329 97.5962991,35.3467468 97.7318464,35.3300454 Z M99.3137705,35.0976591 C99.5427809,35.0579655 99.7657937,35.0163618 99.9825702,34.9728578 C100.116475,34.945985 100.203255,34.8155799 100.176399,34.6815897 C100.149544,34.5475996 100.019222,34.4607638 99.8853174,34.4876366 C99.6728785,34.5302701 99.4541433,34.5710758 99.2293603,34.6100367 C99.0947931,34.6333608 99.0046007,34.7614268 99.02791,34.89608 C99.0512192,35.0307332 99.1792033,35.1209833 99.3137705,35.0976591 Z M100.88068,34.7728431 C101.110026,34.7162104 101.330463,34.6570806 101.541711,34.5954596 C101.672824,34.5572137 101.748128,34.4198528 101.709907,34.2886554 C101.671686,34.1574581 101.534412,34.082106 101.403299,34.1203518 C101.1988,34.1800043 100.984994,34.2373554 100.762189,34.2923729 C100.629595,34.3251143 100.548632,34.4592134 100.581353,34.5918916 C100.614074,34.7245698 100.748087,34.8055845 100.88068,34.7728431 Z M102.433136,34.2999375 C102.661412,34.2136821 102.874716,34.1235652 103.072662,34.0295437 C103.196039,33.9709414 103.248579,33.8233544 103.190015,33.6998988 C103.13145,33.5764433 102.983957,33.5238692 102.86058,33.5824714 C102.675281,33.670486 102.474406,33.7553517 102.258422,33.8369627 C102.130657,33.8852396 102.066194,34.0280161 102.11444,34.1558631 C102.162686,34.2837101 102.305371,34.3482144 102.433136,34.2999375 Z M103.900543,33.5500512 C104.11541,33.3953582 104.297335,33.2318629 104.445083,33.0590331 C104.53386,32.9551862 104.521696,32.7989882 104.417916,32.7101551 C104.314135,32.6213219 104.158037,32.633493 104.069261,32.7373398 C103.948574,32.8785142 103.795885,33.0157356 103.611701,33.148338 C103.500842,33.2281505 103.475632,33.3827779 103.555393,33.4937079 C103.635155,33.6046379 103.789683,33.6298637 103.900543,33.5500512 Z M104.915153,32.1193146 C104.985014,31.8826643 105.037581,31.6532127 105.073122,31.4312616 C105.09473,31.2963245 105.002928,31.1694089 104.868077,31.1477875 C104.733226,31.1261662 104.606391,31.2180268 104.584784,31.3529639 C104.552653,31.5536148 104.504815,31.7624277 104.440847,31.9791167 C104.402157,32.1101765 104.47697,32.2478059 104.607946,32.2865205 C104.738922,32.3252351 104.876463,32.2503744 104.915153,32.1193146 Z M105.116036,30.4496242 C105.094028,30.1943269 105.044193,29.9540773 104.967763,29.7303961 C104.92358,29.6010871 104.783003,29.5321024 104.653777,29.5763143 C104.52455,29.6205263 104.45561,29.7611928 104.499793,29.8905018 C104.563055,30.0756451 104.6047,30.2764117 104.623298,30.4921553 C104.635035,30.6283081 104.754853,30.7291607 104.890919,30.7174161 C105.026985,30.7056715 105.127773,30.585777 105.116036,30.4496242 Z M104.447018,28.8415141 C104.277815,28.6556879 104.08169,28.4979541 103.864557,28.3709988 C103.74664,28.3020543 103.595195,28.3418151 103.526294,28.4598073 C103.457394,28.5777994 103.497129,28.7293416 103.615046,28.7982862 C103.789427,28.9002446 103.94633,29.026434 104.081438,29.1748163 C104.173418,29.2758329 104.329821,29.2831108 104.430773,29.1910719 C104.531725,29.0990331 104.538998,28.9425307 104.447018,28.8415141 Z M102.841053,28.0244897 C102.591101,27.9907403 102.342671,27.9915232 102.099688,28.0256957 C101.964446,28.0447157 101.87022,28.1698397 101.889228,28.305168 C101.908236,28.4404963 102.03328,28.5347827 102.168522,28.5157627 C102.366809,28.4878762 102.569826,28.4872364 102.774917,28.5149285 C102.910262,28.5332031 103.034785,28.4382292 103.053048,28.3027983 C103.071311,28.1673673 102.976398,28.0427643 102.841053,28.0244897 Z M101.098427,28.3779283 C100.886642,28.5030458 100.691174,28.6562575 100.517238,28.8327905 C100.421355,28.9301053 100.422465,29.0867728 100.519717,29.1827173 C100.61697,29.2786617 100.773537,29.2775509 100.869421,29.1802361 C101.013501,29.0340044 101.175152,28.9072991 101.349867,28.8040819 C101.46747,28.7346042 101.50652,28.5828838 101.437087,28.4652047 C101.367654,28.3475257 101.21603,28.3084507 101.098427,28.3779283 Z M99.992352,29.6666141 C99.9110497,29.8797114 99.8477453,30.1147318 99.8050516,30.3645338 C99.7820296,30.4992365 99.8724949,30.6271095 100.007112,30.6501463 C100.141728,30.673183 100.26952,30.5826599 100.292542,30.4479572 C100.329904,30.2293481 100.384815,30.0254895 100.454393,29.8431208 C100.503103,29.71545 100.439159,29.5724401 100.31157,29.5236991 C100.18398,29.4749581 100.041062,29.5389433 99.992352,29.6666141 Z M99.7465133,31.3698975 C99.7573569,31.601963 99.7844228,31.8371535 99.8281088,32.0732478 C99.8529729,32.2076222 99.9819917,32.2963849 100.11628,32.2715049 C100.250569,32.2466249 100.339275,32.1175237 100.314411,31.9831492 C100.274827,31.7692227 100.250336,31.5564128 100.240541,31.3467837 C100.234162,31.2102745 100.1184,31.1047861 99.9819777,31.1111688 C99.8455557,31.1175515 99.7401347,31.2333883 99.7465133,31.3698975 Z M100.079906,32.9839465 C100.160465,33.2013419 100.255327,33.4163909 100.364613,33.6281623 C100.427275,33.749587 100.576444,33.7971911 100.697791,33.734489 C100.819138,33.671787 100.866712,33.5225227 100.80405,33.4010981 C100.703979,33.2071826 100.617221,33.0105051 100.543621,32.8118906 C100.49614,32.6837574 100.353842,32.6184009 100.225791,32.6659129 C100.097739,32.7134248 100.032425,32.8558133 100.079906,32.9839465 Z M100.847746,34.4546608 C100.976439,34.6510982 101.111155,34.839263 101.253424,35.019991 C101.337933,35.1273439 101.493412,35.145819 101.600696,35.0612563 C101.707981,34.9766935 101.726444,34.8211152 101.641935,34.7137623 C101.508757,34.544584 101.382374,34.3680574 101.261361,34.183342 C101.186486,34.0690524 101.033197,34.0371392 100.918981,34.1120619 C100.804764,34.1869845 100.772871,34.3403713 100.847746,34.4546608 Z M101.890593,35.7277426 C102.057796,35.8897078 102.233391,36.0431472 102.418056,36.1879253 C102.525559,36.2722088 102.68099,36.2533296 102.765219,36.1457573 C102.849449,36.038185 102.830582,35.8826552 102.723078,35.7983717 C102.552114,35.6643343 102.38951,35.5222474 102.234584,35.372174 C102.136459,35.2771229 101.979908,35.2796656 101.884918,35.3778532 C101.789928,35.4760407 101.792469,35.6326916 101.890593,35.7277426 Z M103.20373,36.7185497 C103.402361,36.8333182 103.609326,36.9396719 103.824971,37.0374077 C103.949376,37.093791 104.095905,37.0385841 104.152252,36.9140995 C104.2086,36.7896149 104.153428,36.6429924 104.029023,36.586609 C103.828145,36.4955662 103.635617,36.3966312 103.451039,36.2899825 C103.332769,36.2216463 103.181531,36.262187 103.113238,36.3805326 C103.044946,36.4988781 103.08546,36.6502136 103.20373,36.7185497 Z M104.726465,37.3792711 C104.942453,37.4465713 105.165615,37.5064974 105.396149,37.5589061 C105.529326,37.5891821 105.661816,37.5056952 105.692072,37.3724328 C105.722329,37.2391704 105.638895,37.1065963 105.505718,37.0763203 C105.28773,37.0267636 105.077067,36.9701941 104.873506,36.9067661 C104.743111,36.8661358 104.604488,36.9389724 104.563884,37.069451 C104.52328,37.1999297 104.59607,37.3386409 104.726465,37.3792711 Z M106.312995,37.7458712 C106.576807,37.7984176 106.782089,37.838096 106.978441,37.8740541 C107.112781,37.8986559 107.241616,37.8096261 107.266202,37.6752005 C107.290788,37.5407748 107.201815,37.4118576 107.067475,37.3872558 C106.874038,37.3518315 106.671069,37.3126001 106.409547,37.2605097 C106.275603,37.2338308 106.145407,37.320855 106.118745,37.4548839 C106.092083,37.5889127 106.179052,37.7191922 106.312995,37.7458712 Z M107.889871,38.020246 C108.122819,38.0510939 108.348621,38.0751524 108.573225,38.0926333 C108.709385,38.1032306 108.828349,38.0013716 108.83894,37.8651247 C108.84953,37.7288779 108.747736,37.6098372 108.611577,37.5992399 C108.396096,37.5824691 108.179114,37.5593502 107.954756,37.5296399 C107.819366,37.5117109 107.695085,37.6070026 107.677168,37.7424797 C107.65925,37.8779568 107.754481,38.002317 107.889871,38.020246 Z M109.509805,38.1271524 C109.734084,38.1262351 109.962476,38.1188213 110.197263,38.1046519 C110.333586,38.0964248 110.437433,37.9791728 110.429211,37.8427624 C110.420989,37.7063519 110.303812,37.6024388 110.167489,37.6106659 C109.941899,37.6242803 109.722761,37.6313937 109.507784,37.6322729 C109.371214,37.6328314 109.260955,37.7440667 109.261511,37.8807239 C109.262071,38.0173811 109.373235,38.1277109 109.509805,38.1271524 Z M111.118269,38.0184942 C111.336368,37.9913609 111.561408,37.9589449 111.794466,37.9210311 C111.929267,37.8991017 112.020779,37.7719766 111.998864,37.6370892 C111.976949,37.5022018 111.849905,37.4106313 111.715104,37.4325607 C111.488058,37.4694965 111.269127,37.5010324 111.05725,37.5273917 C110.921722,37.5442525 110.825515,37.6678579 110.842365,37.8034721 C110.859215,37.9390863 110.982742,38.035355 111.118269,38.0184942 Z M112.705771,37.7531273 C112.920144,37.7093881 113.141377,37.6615076 113.370051,37.6093396 C113.503206,37.5789628 113.586539,37.4463256 113.556182,37.3130861 C113.525824,37.1798467 113.393272,37.09646 113.260117,37.1268369 C113.035086,37.1781737 112.817557,37.2252526 112.606961,37.2682213 C112.473143,37.2955246 112.386782,37.4262082 112.414068,37.5601112 C112.441354,37.6940143 112.571954,37.7804305 112.705771,37.7531273 Z M114.255409,37.3954041 C114.467608,37.3414828 114.685957,37.2842433 114.910812,37.2235846 C115.042675,37.1880121 115.120753,37.0522104 115.085203,36.9202631 C115.049653,36.7883158 114.913938,36.7101885 114.782075,36.745761 C114.55952,36.8057994 114.343504,36.8624271 114.13368,36.9157449 C114.00131,36.9493809 113.921253,37.0840236 113.954868,37.2164779 C113.988482,37.3489321 114.123039,37.4290401 114.255409,37.3954041 Z M115.796041,36.9767782 C115.888222,36.9503029 115.981435,36.9233061 116.075699,36.8957817 C116.206803,36.8575008 116.28207,36.7201197 116.243814,36.5889326 C116.205557,36.4577454 116.068264,36.38243 115.93716,36.4207109 C115.843589,36.4480328 115.751074,36.4748275 115.659596,36.5011011 C115.528325,36.5388035 115.452454,36.6758512 115.490132,36.8072058 C115.52781,36.9385604 115.66477,37.0144806 115.796041,36.9767782 Z" id="Path-31-Copy" fill="url(#linearGradient-15)" fill-rule="nonzero" transform="translate(96.126111, 32.822156) scale(-1, -1) rotate(146.000000) translate(-96.126111, -32.822156) "></path>
            </g>
        </g>
    </g>
</svg>