<?xml version="1.0" encoding="UTF-8"?>
<svg width="24px" height="24px" viewBox="0 0 24 24" version="1.1" xmlns="http://www.w3.org/2000/svg" xmlns:xlink="http://www.w3.org/1999/xlink">
    <title>编组备份@4x</title>
    <g id="创新提报" stroke="none" stroke-width="1" fill="none" fill-rule="evenodd">
        <g id="交互补充" transform="translate(-119.000000, -487.000000)">
            <g id="编组备份" transform="translate(119.000000, 487.000000)">
                <circle id="Oval-Copy-12" fill="#3C6EF0" cx="12" cy="12" r="12"></circle>
                <path d="M13.5728123,6.62711792 C13.5728123,8.07811869 12.4052839,9.25431192 10.9650163,9.25431192 C9.52482265,9.25431192 8.35729575,8.07809891 8.35729575,6.62711792 C8.35729575,5.17621149 9.52482416,4 10.9650163,4 C12.4052869,4 13.5728123,5.17619779 13.5728123,6.62711792 Z M10.1877918,12.2550151 L13.1799331,10.9844707 C13.3629525,10.9067229 13.6678912,10.881513 13.8609716,10.9281179 L13.9294278,10.9446392 C13.7716644,10.3174097 13.2425923,10.204377 11.9844408,10.204377 L9.18776487,10.204377 C8.16455247,10.204377 7.61321202,10.1750251 7.27997987,10.878165 C7.27514202,10.8882397 6.98003318,11.6668999 6.67341037,12.6289987 C6.5200831,13.110621 6.36402043,13.6377565 6.23984305,14.1465041 C6.11636213,14.658677 6.02042368,15.1396754 6.00111882,15.5991711 L6.00150523,15.5883646 L6.00128885,15.5932851 C6.00074787,15.6091368 6.00000297,15.6291615 6.00000297,15.6544027 C5.99948046,15.9086509 6.06796769,16.1475166 6.1644304,16.3399471 C6.35003113,16.7033828 6.60260304,16.9320624 6.86298086,17.129633 C7.32274667,17.4677801 7.86033462,17.7121421 8.43807747,17.9357454 C10.1574508,18.5901153 12.2478474,18.9758496 12.2760774,18.9832297 C12.3364192,18.99455 12.396529,19 12.4558358,19 C12.9157255,19 13.3250397,18.6703241 13.4123534,18.1982472 C13.5110424,17.6653492 13.1621922,17.1528339 12.6331669,17.0534262 C12.6331669,17.0534262 12.6166131,17.0502653 12.579085,17.0428844 C12.2993555,16.9886651 10.9677229,16.7163842 9.75774368,16.3214637 C9.15553178,16.1267127 8.58067839,15.8942791 8.22596635,15.6844712 C8.10896157,15.6171251 8.01813957,15.5510871 7.96150732,15.5039053 C7.98696389,15.278199 8.0472748,14.9571327 8.13199162,14.6153884 C8.2606195,14.0878466 8.44025326,13.4972255 8.60979504,12.9792886 C8.44988379,13.9476551 8.25412841,15.2551746 8.23418915,15.3878642 C8.26720394,15.410209 8.30674138,15.435279 8.35252312,15.4616257 C8.67559155,15.6526546 9.21509624,15.8764314 9.83560857,16.077021 C9.85282692,16.0826423 9.87006083,16.0882168 9.88731015,16.0937758 C9.86755683,16.0436205 9.85647462,15.9906313 9.85647462,15.9376266 L9.85647457,12.7579294 C9.8564282,12.5578693 10.004794,12.3326758 10.1877824,12.255022 L10.1877918,12.2550151 Z M18.0710083,16.0479758 C18.0708537,16.0479758 18.0599879,16.0476177 18.0321354,16.046045 C18.0279622,16.045827 18.0233407,16.0455778 18.0185183,16.0453131 C18.0132168,16.0478357 18.0079771,16.0506697 18.0026138,16.0529431 L15.0106839,17.3235803 C14.8276962,17.4013281 14.5227576,17.4264446 14.3296454,17.3799019 L14.1282954,17.3312882 C14.1296246,17.3368471 14.1309848,17.3425774 14.1323141,17.348074 C14.2964138,17.4093628 14.4638998,17.4627882 14.6353266,17.5136287 C15.3842954,17.7261619 16.2017987,17.8428542 16.849881,17.9149951 C17.496267,17.9862963 17.9665107,18.0082051 17.9804989,18.0089059 C17.9958162,18.0097 18.0111334,18.0100426 18.0263889,18.0100426 C18.5437144,18.0100426 18.9747457,17.6000331 18.9989187,17.0742047 C19.0240352,16.5324932 18.6085528,16.0732638 18.0710102,16.0479752 L18.0710083,16.0479758 Z M17.7903831,12.4532583 L15.0925802,13.5988735 C14.9648332,13.6531085 14.8611982,13.8104253 14.8611982,13.9500385 L14.8611982,16.7759474 C14.8611982,16.9156847 14.9648332,16.9849305 15.0925802,16.9307728 L17.7903831,15.7850495 C17.9181764,15.7308301 18.0217802,15.573653 18.0217802,15.4338845 L18.0217802,12.6078843 C18.0217802,12.468256 17.9181761,12.3990259 17.7903831,12.4532613 L17.7903831,12.4532583 Z M14.1365806,13.6735693 L10.3801895,12.7666158 C10.2449152,12.7339004 10.1352528,12.8211155 10.1352528,12.9611948 L10.1352528,15.8049225 C10.1352528,15.9449712 10.2449158,16.0850194 10.3801895,16.1177505 L14.1365806,17.024704 C14.2718703,17.057326 14.3815022,16.9702043 14.3815022,16.830125 L14.3815022,13.9863973 C14.3815022,13.8462553 14.2718701,13.7061908 14.1365806,13.6735693 L14.1365806,13.6735693 Z M10.5397518,14.3446625 L10.4665504,14.323096 L10.4686216,14.2188615 L10.3713391,14.1901946 L10.318262,14.2794028 L10.2474255,14.2585217 L10.4566116,13.9229599 L10.5444656,13.9488396 L10.5397514,14.3446625 L10.5397518,14.3446625 Z M10.8160883,14.4144381 L10.5767711,14.3555779 L10.7040307,13.9896832 L10.7877595,14.010284 L10.6811821,14.3166966 L10.8367711,14.3549711 L10.8160889,14.4144381 L10.8160883,14.4144381 Z M11.0524151,14.4840732 L10.8131149,14.425213 L10.9403655,14.0593183 L11.0240884,14.0799191 L10.9175369,14.3863318 L11.0731149,14.4246062 L11.0524155,14.4840732 L11.0524151,14.4840732 Z M11.0604318,14.4583642 L11.0859725,14.3183624 L11.3204318,14.4283606 L11.2948911,14.5683624 L11.0604318,14.4583642 Z M11.3896673,14.5950972 L11.4353873,14.4376089 L11.3116436,14.4011563 L11.2659236,14.5586446 L11.1960299,14.5380438 L11.3022615,14.1721491 L11.3721552,14.1927499 L11.3297429,14.3388248 L11.4534867,14.3752773 L11.4958989,14.2292024 L11.5657927,14.2498033 L11.4595611,14.615698 L11.3896673,14.5950972 Z M11.7861082,14.7119135 L11.7129068,14.690347 L11.7149779,14.5861125 L11.6176955,14.5574456 L11.5646183,14.6466538 L11.4937818,14.6257727 L11.702968,14.2902261 L11.790822,14.3161058 L11.7861078,14.7119135 L11.7861082,14.7119135 Z M11.8826333,14.7403622 L11.8835452,14.343433 L11.9600543,14.3659803 L11.9541809,14.5398662 C11.9534081,14.5631453 11.9523416,14.5865023 11.9511051,14.6098905 C11.9497913,14.6332631 11.9479056,14.6565579 11.9453398,14.679806 L11.9467618,14.6802264 C11.9572258,14.6594697 11.9681689,14.6388377 11.9797766,14.6183303 C11.9913998,14.5977295 12.0031313,14.5776112 12.0151253,14.5578045 L12.1041232,14.408413 L12.1792102,14.4305399 L11.9624658,14.7638755 L11.8826333,14.7403628 L11.8826333,14.7403622 Z M12.3847033,14.5551414 L12.259074,14.5181283 L12.2333854,14.6066203 L12.3519358,14.6415469 L12.3352275,14.6991141 L12.2166771,14.6641875 L12.1871091,14.7660086 L12.3202967,14.8052483 L12.3031711,14.8642482 L12.1000901,14.8044075 L12.2063217,14.4385127 L12.4018445,14.4961267 L12.3847033,14.5551421 L12.3847033,14.5551414 Z M12.5398537,14.9340084 C12.4937318,14.9204146 12.4572394,14.8767837 12.4581049,14.8300074 L12.5312909,14.5779078 L12.7375257,14.6386671 L12.7218838,14.6925595 L12.5820963,14.6513734 L12.526206,14.8438662 C12.5259896,14.8438039 12.5388339,14.8694032 12.5570415,14.8747597 C12.571045,14.8788862 12.5899482,14.8724085 12.599763,14.8655415 L12.6470749,14.7026026 L12.71329,14.7221134 L12.6643243,14.890751 C12.6400422,14.9306603 12.5859605,14.947602 12.539854,14.9340082 L12.5398537,14.9340084 Z M13.3350992,14.8218948 L13.3193181,14.8762233 L13.3036762,14.9301157 L13.2372293,14.9105424 L13.1820038,14.8942705 L13.1406271,15.0367639 C13.171107,15.0342258 13.2025608,15.0283554 13.2349264,15.019324 L13.2469514,15.0738549 C13.206734,15.0850663 13.164569,15.092307 13.1239342,15.0942846 L13.0466214,15.3606164 L13.1370102,15.387259 L13.1213683,15.4411514 L12.9645323,15.3949357 L13.0525408,15.0918083 C13.0372544,15.0898152 13.0225709,15.0868255 13.0087065,15.0827458 L13.0102057,15.0246803 C13.0291862,15.0302704 13.0486921,15.0340854 13.0686772,15.0362031 L13.1155719,14.8746976 L12.936324,14.8218796 L12.9000479,14.9468396 L12.9950428,14.974837 L12.980792,15.0239023 L12.8857971,14.995905 L12.8716236,15.0447212 C12.8559353,15.0987694 12.7997052,15.1297875 12.746056,15.1139826 C12.6924069,15.0981776 12.6616179,15.0415292 12.677306,14.9874655 C12.691665,14.9380109 12.7399661,14.9078648 12.7891639,14.9151989 L12.8028737,14.9182198 L12.8392425,14.9289329 L12.8755186,14.8039729 L12.7413728,14.7644528 L12.7570147,14.7105604 L12.8911605,14.750096 L12.904283,14.7048923 L12.7870156,14.6703395 L12.8026575,14.6164471 C12.8755497,14.63792 12.9484419,14.6594084 13.0213337,14.6808813 L13.0056918,14.7347737 L12.965057,14.7227993 L12.9519346,14.768003 L13.1311824,14.8208209 L13.1599467,14.7217249 L13.2263936,14.7412981 L13.1976293,14.8403942 L13.2528549,14.8566661 L13.274772,14.7811762 C13.2762249,14.7761622 13.2749266,14.7609023 13.2703052,14.7542378 L13.327942,14.7712262 C13.3346346,14.7831383 13.3387615,14.8049537 13.3350983,14.8218954 L13.3350992,14.8218948 Z M13.4371422,15.1984093 C13.3910203,15.1848155 13.3545279,15.1411846 13.3553934,15.0944083 L13.4285794,14.8423086 L13.6348142,14.9030835 L13.6191723,14.9569759 L13.4793848,14.9157898 L13.4234945,15.1082826 C13.4232627,15.1082203 13.4361224,15.1338195 13.45433,15.1391761 C13.4683335,15.1433025 13.4872367,15.1368248 13.4970515,15.1299579 L13.5443634,14.967019 L13.6105785,14.9865298 L13.5616127,15.1551826 C13.5373463,15.1950452 13.4832644,15.2120024 13.4371425,15.1984087 L13.4371422,15.1984093 Z M13.7440248,15.4748954 L13.580469,15.4432297 L13.6769133,15.2248954 L13.840469,15.2565612 L13.7440248,15.4748954 Z M13.8083701,15.3161454 L13.6334226,15.2787435 L13.7184751,15.0661454 L13.8934226,15.1035473 L13.8083701,15.3161454 Z M13.6795134,15.1200089 L13.7645658,14.9074108 L13.9395134,14.9448128 L13.8544609,15.1574108 L13.6795134,15.1200089 Z M14.2062972,15.2591985 L14.1906553,15.3130908 L14.1568522,15.3031407 L14.1085974,15.4693802 C14.1029095,15.4886264 14.0773291,15.5063621 14.0551647,15.4997131 C13.9675734,15.4739114 13.8969693,15.4530925 13.8093777,15.4272908 L13.8250196,15.3733984 L14.0200167,15.4308567 C14.0313308,15.4341889 14.0496003,15.4241454 14.0529234,15.4127005 L14.0904205,15.2835674 L13.8699665,15.2186038 L13.8514652,15.2823372 L14.0474064,15.3400758 L14.0317645,15.3939682 L13.7693778,15.3166564 L13.8035208,15.1990305 L13.7697332,15.1890804 L13.7853751,15.135188 L13.8191627,15.1451381 L13.8533058,15.0275123 C13.9710833,15.0622208 14.0888612,15.0969293 14.2066539,15.1316222 L14.1725109,15.2492481 L14.2062985,15.2591982 L14.2062972,15.2591985 Z M14.1881134,15.3440504 L14.1544288,15.5028297 L13.9281134,15.4116089 L13.961798,15.2528297 L14.1881134,15.3440504 Z M14.2464219,15.1731998 L13.8254984,15.0164456 L13.8511406,14.9231998 L13.9136926,14.9465013 L13.9075873,14.9730698 L14.2620788,15.1050859 L14.2464215,15.1731998 L14.2464219,15.1731998 Z M12.7285941,15.0553948 C12.7096902,15.1181458 12.7434953,15.1900921 12.8089257,15.2086751 C12.8826389,15.229605 12.9188614,15.1948245 12.9429174,15.1315347 L12.9833806,14.9972605 L12.8886232,14.9703672 C12.815425,14.9535925 12.7536013,14.9724063 12.7285941,15.0553948 L12.7285941,15.0553948 Z M11.861277,14.3943511 C11.8480927,14.4063051 11.8348612,14.4182589 11.8214878,14.4300522 C11.8081145,14.4418455 11.7955446,14.452744 11.7838252,14.4626329 L11.643051,14.5765967 L11.8798485,14.610233 L11.8873148,14.4781202 C11.8883545,14.4659598 11.8898194,14.4531111 11.8915678,14.4393904 C11.8932218,14.4258074 11.895112,14.4122474 11.8972385,14.3987103 C11.8993177,14.3853109 11.901208,14.3726456 11.903051,14.3608525 L11.8987035,14.360233 C11.8871731,14.3708791 11.8745559,14.3822824 11.8612771,14.3943511 L11.861277,14.3943511 Z M10.614922,14.0271006 C10.6017377,14.0390545 10.5885062,14.0510083 10.5751328,14.0628017 C10.5617595,14.074595 10.5491896,14.0854935 10.5374702,14.0953823 L10.396696,14.2093462 L10.6334935,14.2429825 L10.6409598,14.1108696 C10.6419995,14.0987092 10.6434644,14.0858605 10.6452129,14.0721398 C10.6468668,14.0585569 10.648757,14.0449969 10.6508835,14.0314598 C10.6529628,14.0180604 10.654853,14.0053951 10.656696,13.993602 L10.6523485,13.9929825 C10.6408181,14.0036286 10.6282009,14.0150319 10.6149221,14.0271006 L10.614922,14.0271006 Z M13.8856137,15.2247822 L14.125483,15.350977 L14.1456137,15.2271718 L13.9057444,15.100977 L13.8856137,15.2247822 Z M13.9959465,15.1352184 L14.2222619,15.2264392 L14.1885773,15.3852184 L13.9622619,15.2939976 L13.9959465,15.1352184 Z M17.5019469,12.0755353 L13.7873646,11.178812 C13.6496793,11.1455049 13.4323324,11.1634899 13.3019108,11.2188927 L10.6420048,12.3484695 C10.5115067,12.4038723 10.5173646,12.4757498 10.6550345,12.5089631 L14.3697981,13.4057016 C14.5074834,13.4389777 14.7248152,13.4210082 14.855267,13.365621 L17.5150069,12.2360441 C17.6454742,12.1806101 17.6396316,12.1087173 17.5019462,12.0755353 L17.5019469,12.0755353 Z M12.7286033,15.0553821 C12.7096995,15.118133 12.7435045,15.1900793 12.8089349,15.2086623 C12.8826482,15.2295922 12.9188706,15.1948117 12.9429266,15.131522 L12.9833898,14.9972477 L12.8886324,14.9703544 C12.8154342,14.9535797 12.7536105,14.9723935 12.7286033,15.055382 L12.7286033,15.0553821 Z M10.6149267,14.0270893 C10.6017424,14.0390433 10.5885109,14.0509971 10.5751375,14.0627904 C10.5617642,14.0745837 10.5491943,14.0854822 10.5374749,14.0953711 L10.3967007,14.2093349 L10.6334982,14.2429712 L10.6409645,14.1108584 C10.6420042,14.098698 10.6434691,14.0858493 10.6452175,14.0721286 C10.6468715,14.0585456 10.6487617,14.0449856 10.6508882,14.0314485 C10.6529674,14.0180491 10.6548577,14.0053838 10.6567007,13.9935907 L10.6523532,13.9929712 C10.6408228,14.0036173 10.6282056,14.0150206 10.6149268,14.0270893 L10.6149267,14.0270893 Z M11.8612817,14.3943399 C11.8480974,14.4062938 11.8348658,14.4182476 11.8214925,14.4300409 C11.8081192,14.4418343 11.7955492,14.4527328 11.7838299,14.4626216 L11.6430556,14.5765855 L11.8798532,14.6102218 L11.8873195,14.4781089 C11.8883591,14.4659485 11.889824,14.4530998 11.8915725,14.4393791 C11.8932265,14.4257961 11.8951167,14.4122361 11.8972432,14.3986991 C11.8993224,14.3852996 11.9012127,14.3726344 11.9030556,14.3608412 L11.8987081,14.3602218 C11.8871778,14.3708679 11.8745606,14.3822711 11.8612818,14.3943399 L11.8612817,14.3943399 Z M13.8856229,15.224771 L14.1254922,15.3509658 L14.1456229,15.2271605 L13.9057537,15.1009658 L13.8856229,15.224771 Z M13.9959557,15.1352071 L14.2222711,15.2264279 L14.1885865,15.3852071 L13.9622711,15.2939864 L13.9959557,15.1352071 Z M12.728602,15.0553827 C12.7096981,15.1181336 12.7435031,15.1900799 12.8089335,15.2086629 C12.8826468,15.2295928 12.9188693,15.1948123 12.9429253,15.1315226 L12.9833885,14.9972483 L12.8886311,14.970355 C12.8154329,14.9535803 12.7536092,14.9723941 12.728602,15.0553826 L12.728602,15.0553827 Z" id="形状" fill="#FFFFFF" fill-rule="nonzero"></path>
            </g>
        </g>
    </g>
</svg>