<?xml version="1.0" encoding="UTF-8"?>
<svg width="24px" height="24px" viewBox="0 0 24 24" version="1.1" xmlns="http://www.w3.org/2000/svg" xmlns:xlink="http://www.w3.org/1999/xlink">
    <title>编组 5备份@4x</title>
    <g id="创新提报" stroke="none" stroke-width="1" fill="none" fill-rule="evenodd">
        <g id="交互补充" transform="translate(-119.000000, -435.000000)">
            <g id="编组-5备份" transform="translate(119.000000, 435.000000)">
                <circle id="Oval-Copy-12" stroke="#3C6EF0" stroke-width="0.75" fill="#3C6EF0" cx="12" cy="12" r="11.625"></circle>
                <path d="M12,5.25 C13.190864,5.25 14.1656449,6.17516159 14.2448092,7.34595119 L14.25,7.5 L16.5,7.5 C17.3284271,7.5 18,8.17157288 18,9 L18,17.25 C18,18.0784271 17.3284271,18.75 16.5,18.75 L7.5,18.75 C6.67157288,18.75 6,18.0784271 6,17.25 L6,9 C6,8.17157288 6.67157288,7.5 7.5,7.5 L9.75,7.5 C9.75,6.25735931 10.7573593,5.25 12,5.25 Z M12.375,15 L9.375,15 C9.16789322,15 9,15.1678932 9,15.375 C9,15.5821068 9.16789322,15.75 9.375,15.75 L9.375,15.75 L12.375,15.75 C12.5821068,15.75 12.75,15.5821068 12.75,15.375 C12.75,15.1678932 12.5821068,15 12.375,15 L12.375,15 Z M14.625,12.75 L9.375,12.75 C9.16789322,12.75 9,12.9178932 9,13.125 C9,13.3321068 9.16789322,13.5 9.375,13.5 L9.375,13.5 L14.625,13.5 C14.8321068,13.5 15,13.3321068 15,13.125 C15,12.9178932 14.8321068,12.75 14.625,12.75 L14.625,12.75 Z M14.625,10.5 L9.375,10.5 C9.16789322,10.5 9,10.6678932 9,10.875 C9,11.0821068 9.16789322,11.25 9.375,11.25 L9.375,11.25 L14.625,11.25 C14.8321068,11.25 15,11.0821068 15,10.875 C15,10.6678932 14.8321068,10.5 14.625,10.5 L14.625,10.5 Z M12,6.75 C11.5857864,6.75 11.25,7.08578644 11.25,7.5 C11.25,7.91421356 11.5857864,8.25 12,8.25 C12.4142136,8.25 12.75,7.91421356 12.75,7.5 C12.75,7.08578644 12.4142136,6.75 12,6.75 Z" id="1" fill="#FFFFFF"></path>
            </g>
        </g>
    </g>
</svg>