<?xml version="1.0" encoding="UTF-8"?>
<svg width="24px" height="24px" viewBox="0 0 24 24" version="1.1" xmlns="http://www.w3.org/2000/svg" xmlns:xlink="http://www.w3.org/1999/xlink">
    <title>编组 5备份 2@4x</title>
    <g id="创新提报" stroke="none" stroke-width="1" fill="none" fill-rule="evenodd">
        <g id="交互补充" transform="translate(-36.000000, -539.000000)">
            <g id="编组-5备份-2" transform="translate(36.000000, 539.000000)">
                <g id="编组-17备份-2" stroke="#D8D8D8" stroke-width="0.75">
                    <g id="编组-18">
                        <circle id="Oval-Copy-12" cx="12" cy="12" r="11.625"></circle>
                    </g>
                </g>
                <g id="轨迹" transform="translate(5.000000, 4.000000)" fill="#D8D8D8" fill-rule="nonzero">
                    <path d="M11.2618979,14 C12.2108908,14 13,13.2745388 13,12.3556284 C13,11.4379914 12.2121915,10.7125294 11.2618979,10.7125294 L1.73808883,10.7125294 C1.38189289,10.7125294 1.11019481,10.4618093 1.11019481,10.1741583 C1.11019481,9.88780663 1.38189289,9.63580077 1.73808883,9.63580077 L3.71152193,9.63580077 L3.71152191,9.63580077 C4.02022972,9.63301143 4.26817535,9.38574268 4.26532662,9.08351211 C4.26532638,9.08348721 4.26532615,9.08346232 4.26532591,9.08343743 C4.25881532,8.77161711 4.01051902,8.52344113 3.7115212,8.52980146 L1.73810207,8.52980146 C0.789109184,8.52980146 0,9.25526209 0,10.1741725 C0,11.0918095 0.787808464,11.8185435 1.73810207,11.8185435 L11.2593125,11.8185435 C11.6168078,11.8185435 11.8898052,12.0679916 11.8898052,12.355629 C11.8898052,12.6419943 11.6181071,12.8940001 11.2593125,12.8940001 L3.31628971,12.8940001 C3.01730586,12.8876261 2.77029491,13.1345437 2.76249897,13.446364 C2.76249897,13.7518103 3.00949595,14 3.31628971,14 L11.2618972,14 L11.2618979,14 Z M7.02260038,1.18141204e-05 C5.0115009,-0.00505090237 3.38259779,1.61768133 3.37608721,3.62095281 C3.37608721,5.10749191 5.39369726,7.88841975 6.43110135,9.21714059 C6.72228927,9.54295363 7.22149449,9.57351057 7.54908997,9.28587319 L7.61799597,9.21714059 C8.65409934,7.88842111 10.6729961,5.11386591 10.6729961,3.62095281 C10.6639009,1.61768133 9.03499778,-0.00123470428 7.02128569,1.18141204e-05 L7.02260038,1.18141204e-05 Z M7.02260038,5.66621622 C6.48048957,5.66621622 5.96179591,5.45239962 5.57829883,5.07057463 C5.19478918,4.68876333 4.98028923,4.17076026 4.98028923,3.63238772 C4.98028923,3.0914861 5.19478918,2.57475509 5.57829883,2.19421449 L5.57829875,2.19421457 C5.9588996,1.81488585 6.47947937,1.60156995 7.0226003,1.60238691 C8.1340923,1.62148393 9.02718919,2.52511451 9.02718919,3.63494561 C9.02718919,4.74221618 8.1340951,5.64584948 7.0226003,5.66621622 L7.02260038,5.66621622 Z" id="形状"></path>
                </g>
            </g>
        </g>
    </g>
</svg>